<svg width="142" height="142" viewBox="0 0 142 142" fill="none" xmlns="http://www.w3.org/2000/svg">
<rect width="142" height="142" rx="71" fill="white"/>
<rect width="142" height="142" rx="71" fill="#FFB555" fill-opacity="0.1"/>
<path d="M70 99C71.6433 99 73.0208 98.4442 74.1325 97.3325C75.2442 96.2208 75.8 94.8433 75.8 93.2C75.8 91.5567 75.2442 90.1792 74.1325 89.0675C73.0208 87.9558 71.6433 87.4 70 87.4C68.3567 87.4 66.9792 87.9558 65.8675 89.0675C64.7558 90.1792 64.2 91.5567 64.2 93.2C64.2 94.8433 64.7558 96.2208 65.8675 97.3325C66.9792 98.4442 68.3567 99 70 99ZM64.2 75.8H75.8V41H64.2V75.8ZM70 128C61.9767 128 54.4367 126.478 47.38 123.433C40.3233 120.388 34.185 116.255 28.965 111.035C23.745 105.815 19.6125 99.6767 16.5675 92.62C13.5225 85.5633 12 78.0233 12 70C12 61.9767 13.5225 54.4367 16.5675 47.38C19.6125 40.3233 23.745 34.185 28.965 28.965C34.185 23.745 40.3233 19.6125 47.38 16.5675C54.4367 13.5225 61.9767 12 70 12C78.0233 12 85.5633 13.5225 92.62 16.5675C99.6767 19.6125 105.815 23.745 111.035 28.965C116.255 34.185 120.388 40.3233 123.433 47.38C126.478 54.4367 128 61.9767 128 70C128 78.0233 126.478 85.5633 123.433 92.62C120.388 99.6767 116.255 105.815 111.035 111.035C105.815 116.255 99.6767 120.388 92.62 123.433C85.5633 126.478 78.0233 128 70 128ZM70 116.4C82.9533 116.4 93.925 111.905 102.915 102.915C111.905 93.925 116.4 82.9533 116.4 70C116.4 57.0467 111.905 46.075 102.915 37.085C93.925 28.095 82.9533 23.6 70 23.6C57.0467 23.6 46.075 28.095 37.085 37.085C28.095 46.075 23.6 57.0467 23.6 70C23.6 82.9533 28.095 93.925 37.085 102.915C46.075 111.905 57.0467 116.4 70 116.4Z" fill="#FFB555"/>
</svg>
