<svg width="142" height="142" viewBox="0 0 142 142" fill="none" xmlns="http://www.w3.org/2000/svg">
<rect width="142" height="142" rx="71" fill="white"/>
<rect width="142" height="142" rx="71" fill="#DF5436" fill-opacity="0.1"/>
<path d="M87.396 95.5939L95.5939 87.396L79.1981 71.0002L95.5939 54.6044L87.396 46.4065L71.0002 62.8023L54.6044 46.4065L46.4065 54.6044L62.8023 71.0002L46.4065 87.396L54.6044 95.5939L71.0002 79.1981L87.396 95.5939ZM111.99 111.99C106.319 117.66 99.9149 121.913 92.7759 124.748C85.6369 127.583 78.3783 129.001 71.0002 129.001C63.6221 129.001 56.3635 127.583 49.2245 124.748C42.0855 121.913 35.6809 117.66 30.0107 111.99C24.3405 106.32 20.0878 99.9149 17.2527 92.7759C14.4176 85.6369 13 78.3784 13 71.0002C13 63.622 14.4176 56.3635 17.2527 49.2245C20.0878 42.0855 24.3405 35.6809 30.0107 30.0106C35.6809 24.3404 42.0855 20.0878 49.2245 17.2527C56.3635 14.4176 63.6221 13 71.0002 13C78.3783 13 85.6369 14.4176 92.7759 17.2527C99.9149 20.0878 106.319 24.3404 111.99 30.0106C117.66 35.6809 121.913 42.0855 124.747 49.2245C127.583 56.3635 129 63.622 129 71.0002C129 78.3784 127.583 85.6369 124.747 92.7759C121.913 99.9149 117.66 106.32 111.99 111.99ZM103.792 103.792C112.946 94.6375 117.523 83.707 117.523 71.0002C117.523 58.2934 112.946 47.3629 103.792 38.2086C94.6375 29.0542 83.707 24.4771 71.0002 24.4771C58.2935 24.4771 47.3629 29.0542 38.2085 38.2086C29.0542 47.3629 24.4771 58.2934 24.4771 71.0002C24.4771 83.707 29.0542 94.6375 38.2085 103.792C47.3629 112.946 58.2935 117.523 71.0002 117.523C83.707 117.523 94.6375 112.946 103.792 103.792Z" fill="#DF5436"/>
</svg>
