<svg width="174" height="51" viewBox="0 0 174 51" fill="none" xmlns="http://www.w3.org/2000/svg">
<path d="M69.509 9.49805C70.5993 10.401 71.1517 11.7219 71.1517 13.4317V21.8274H81.944V8.1628H82.2658C84.2879 8.1628 85.8584 8.6143 86.9295 9.49805C88.0006 10.3818 88.5769 11.7219 88.5769 13.4317V42.2977H88.2503C86.2283 42.2977 84.6577 41.8511 83.5866 40.9673C82.5155 40.0836 81.944 38.7435 81.944 37.0337V28.3883H71.1517V42.2833H70.8299C68.8078 42.2833 67.2372 41.8366 66.1613 40.9529C65.0855 40.0691 64.5187 38.7291 64.5187 37.0193V8.14844H64.8549C66.8674 8.16285 68.4332 8.6143 69.509 9.49805Z" fill="#FEB45C"/>
<path d="M147.779 28.9742C147.576 28.4189 147.314 27.8874 146.996 27.3892C146.252 26.2064 145.183 25.2626 143.917 24.6707C144.845 23.9565 145.601 23.0442 146.131 22.0003C146.759 20.8285 147.088 19.5206 147.092 18.1914C147.092 15.3096 146.246 12.937 144.58 11.2031C144.076 10.6779 143.504 10.2223 142.88 9.84864C142.335 9.52382 141.755 9.26274 141.15 9.07056C140.082 8.73926 138.969 8.5772 137.851 8.59026H130.032C128.671 8.53679 127.318 8.82579 126.098 9.43078L125.92 9.53169C125.726 9.64799 125.541 9.77967 125.368 9.92551C124.273 10.8237 123.72 12.1493 123.72 13.8592V36.6158C123.72 38.3257 124.273 39.6513 125.368 40.5494C126.195 41.1924 127.178 41.605 128.216 41.7454C128.816 41.8408 129.424 41.8874 130.032 41.8847H138.619C139.47 41.8887 140.318 41.792 141.146 41.5965C141.854 41.4275 142.539 41.1743 143.187 40.8424C143.336 40.7704 143.485 40.6887 143.629 40.6023C145.083 39.7558 146.269 38.5154 147.049 37.024C147.349 36.4604 147.594 35.8683 147.779 35.2565C148.107 34.1384 148.269 32.9781 148.259 31.8128C148.266 30.8458 148.103 29.8852 147.779 28.9742ZM130.176 15.0167H134.234C135.834 15.0167 138.077 14.6276 139.402 15.6699C140.243 16.3183 140.435 17.4662 140.435 18.4701C140.435 20.5786 139.061 22.0627 136.933 22.0627H130.176V15.0167ZM141.074 33.9453C140.781 34.3934 140.384 34.7632 139.916 35.0227C139.448 35.2822 138.924 35.4234 138.389 35.4342C135.67 35.5687 132.913 35.4342 130.195 35.4342V28.3883C132.88 28.3883 135.565 28.3883 138.249 28.3883C140.305 28.3883 141.612 29.8772 141.612 31.8896C141.629 32.6118 141.443 33.3243 141.074 33.9453Z" fill="#FEB45C"/>
<path d="M173.998 35.3864V35.713C174.015 36.6799 173.93 37.6458 173.743 38.5948C173.622 39.2256 173.388 39.8292 173.052 40.3767C172.785 40.8003 172.423 41.1556 171.995 41.4141C171.577 41.6646 171.113 41.8279 170.631 41.8944H157.663C157.055 41.8972 156.448 41.8506 155.847 41.7551C154.81 41.6142 153.828 41.2035 152.999 40.564C151.904 39.661 151.352 38.3354 151.352 36.6255V13.8689C151.352 12.159 151.904 10.8334 152.999 9.93527C153.173 9.78944 153.357 9.6577 153.552 9.54139L153.729 9.44055C154.949 8.83556 156.302 8.54655 157.663 8.60002H173.21V8.92665C173.21 11.0592 172.903 12.5817 172.25 13.5759C171.596 14.5701 170.525 15.1273 169.084 15.1273H157.98V21.8515H168.647V22.2741C168.647 24.3586 168.33 25.8524 167.687 26.8322C167.366 27.3427 166.906 27.751 166.361 28.009C165.783 28.267 165.155 28.3933 164.522 28.3788H157.98V35.3767H169.949C170.196 35.3767 170.444 35.3944 170.689 35.4296L173.998 35.3864Z" fill="#FEB45C"/>
<path d="M120.656 25.2369C120.653 25.2081 120.653 25.1792 120.656 25.1504C120.822 21.1859 119.742 17.269 117.567 13.9499C116.317 12.1455 114.623 10.6933 112.649 9.73282C110.64 8.71308 108.418 8.18164 106.165 8.18164C103.912 8.18164 101.69 8.71308 99.6811 9.73282C97.7079 10.6946 96.0145 12.1466 94.7628 13.9499C92.5897 17.2694 91.5113 21.1864 91.6793 25.1504V25.333C91.5113 29.297 92.5897 33.2141 94.7628 36.5336C96.0145 38.3369 97.7079 39.7889 99.6811 40.7506C101.69 41.7704 103.912 42.3018 106.165 42.3018C108.418 42.3018 110.64 41.7704 112.649 40.7506C114.623 39.7901 116.317 38.3379 117.567 36.5336C119.742 33.2145 120.822 29.2975 120.656 25.333C120.653 25.301 120.653 25.2689 120.656 25.2369ZM109.446 34.2618C108.468 34.8877 107.331 35.2204 106.17 35.2204C105.009 35.2204 103.872 34.8877 102.894 34.2618C100.152 32.6624 99.6715 28.599 99.6859 25.6932V24.771C99.6859 21.8652 100.166 17.8019 102.894 16.2025C103.888 15.6199 105.018 15.3127 106.17 15.3127C107.322 15.3127 108.452 15.6199 109.446 16.2025C112.188 17.8019 112.668 21.8652 112.659 24.771C112.659 24.9199 112.659 25.0688 112.659 25.2273C112.659 25.3858 112.659 25.5347 112.659 25.7076C112.668 28.599 112.188 32.6624 109.446 34.2618Z" fill="#FEB45C"/>
<path d="M51.8865 22.4178C51.6894 20.2812 51.2048 18.1809 50.4456 16.1739C48.6054 11.4484 45.332 7.41744 41.0845 4.64674C36.026 1.38495 30.081 -0.229228 24.0675 0.0262543C19.5394 0.206119 15.119 1.46061 11.1715 3.68614C7.3624 5.80115 4.24397 8.9696 2.18985 12.8118C0.11936 16.9502 -0.506246 21.6625 0.412742 26.1978C0.945747 29.1233 2.16552 31.8806 3.97176 34.2428C6.93521 38.1573 11.6566 40.8997 16.4932 42.0813C16.6697 42.5677 16.8204 43.0631 16.9447 43.5654C17.5185 45.0496 18.4141 46.388 19.5671 47.4846C22.9292 50.7315 27.2231 50.938 31.5746 50.0495C44.8069 47.7873 53.4474 35.6453 51.8865 22.4178ZM24.1059 25.5254C24.1396 26.2266 24.178 26.923 24.178 27.4466C24.0579 32.4945 29.687 35.0785 33.784 32.6915C39.0673 29.5455 36.5985 21.1642 30.4219 21.193H28.3518C28.4526 19.1854 28.8321 17.293 29.956 16.5438C31.1227 15.6854 32.5618 15.2808 34.0049 15.4055C34.807 15.4763 35.5822 15.7294 36.2715 16.1456C36.9607 16.5618 37.5457 17.1301 37.9818 17.807C41.2046 23.0326 40.2728 30.3956 35.9117 34.3677C32.7786 36.8132 28.9605 38.2202 24.9897 38.3926C24.7784 38.3926 24.5574 38.4358 24.3413 38.4406C23.083 38.5274 21.8195 38.5001 20.5661 38.359V25.5157L24.1059 25.5254ZM28.4286 25.5254H30.4075C30.917 25.5254 31.4057 25.7278 31.766 26.0881C32.1263 26.4484 32.3287 26.937 32.3287 27.4466C32.3653 27.742 32.3148 28.0416 32.1834 28.3087C32.052 28.5758 31.8454 28.7986 31.589 28.9499C30.6284 29.507 28.9522 29.3101 28.5871 28.119C28.5119 27.7656 28.4845 27.4038 28.5055 27.0431C28.4863 26.5916 28.4671 25.9144 28.4382 25.5109L28.4286 25.5254ZM42.7608 39.0747C39.7331 42.5599 35.6016 44.9011 31.0559 45.7076C28.6063 46.1879 26.0127 46.5577 23.7649 45.2273C22.7505 44.6608 21.9178 43.818 21.3634 42.797C27.6409 43.0323 33.9473 41.5578 38.5966 37.7058C43.827 33.2726 45.6426 24.6993 43.049 18.2873H43.0826C41.5888 14.2479 38.5485 11.419 34.3651 11.0347C32.9158 10.9084 31.4562 11.0971 30.0866 11.5879C28.717 12.0787 27.4698 12.8599 26.4306 13.8781C24.6199 15.8281 24.1299 18.6043 24.0291 21.1739H20.5709V18.8924C20.4605 14.0894 14.8842 11.6879 10.9649 14.0126C5.7873 17.0721 8.02069 25.2468 13.9908 25.5014H16.229V37.4368C10.8929 35.7558 5.91217 31.947 4.70182 25.3621C4.25225 23.241 4.23317 21.0512 4.64569 18.9226C5.05821 16.794 5.89393 14.7699 7.10332 12.9703C9.45679 9.60821 13.0254 7.20672 16.8534 5.83306C20.7749 4.38788 24.9997 3.96477 29.1299 4.60353C34.4564 5.47287 39.5332 7.96562 43.0586 12.101C45.5062 14.9578 47.0463 18.4795 47.4821 22.2161C48.2842 28.2102 46.7857 34.459 42.7608 39.0747ZM14.2934 21.1739C13.7839 21.1739 13.2952 20.9714 12.9349 20.6111C12.5746 20.2508 12.3722 19.7622 12.3722 19.2527C12.3402 18.9617 12.393 18.6677 12.5242 18.4061C12.6555 18.1445 12.8595 17.9264 13.1119 17.7781C14.303 17.1009 16.3011 17.5764 16.1906 19.2527V21.1739H14.2934Z" fill="#FEB45C"/>
</svg>
