<svg width="174" height="71" viewBox="0 0 174 71" fill="none" xmlns="http://www.w3.org/2000/svg">
<path d="M69.5089 9.49805C70.5992 10.401 71.1515 11.7219 71.1515 13.4317V21.8274H81.9438V8.1628H82.2656C84.2877 8.1628 85.8583 8.6143 86.9293 9.49805C88.0004 10.3818 88.5768 11.7219 88.5768 13.4317V42.2977H88.2502C86.2281 42.2977 84.6575 41.8511 83.5865 40.9673C82.5154 40.0836 81.9438 38.7435 81.9438 37.0337V28.3883H71.1515V42.2833H70.8297C68.8076 42.2833 67.2371 41.8366 66.1612 40.9529C65.0853 40.0691 64.5186 38.7291 64.5186 37.0193V8.14844H64.8548C66.8672 8.16285 68.433 8.6143 69.5089 9.49805Z" fill="#FEB45C"/>
<path d="M147.779 28.9742C147.577 28.4189 147.314 27.8874 146.996 27.3892C146.252 26.2064 145.183 25.2626 143.917 24.6707C144.845 23.9565 145.601 23.0442 146.131 22.0003C146.759 20.8285 147.089 19.5206 147.092 18.1914C147.092 15.3096 146.247 12.937 144.58 11.2031C144.076 10.6779 143.504 10.2223 142.88 9.84864C142.335 9.52382 141.755 9.26274 141.151 9.07056C140.083 8.73926 138.969 8.5772 137.851 8.59026H130.032C128.671 8.53679 127.318 8.82579 126.098 9.43078L125.92 9.53169C125.726 9.64799 125.541 9.77967 125.368 9.92551C124.273 10.8237 123.721 12.1493 123.721 13.8592V36.6158C123.721 38.3257 124.273 39.6513 125.368 40.5494C126.195 41.1924 127.178 41.605 128.216 41.7454C128.817 41.8408 129.424 41.8874 130.032 41.8847H138.62C139.47 41.8887 140.318 41.792 141.146 41.5965C141.854 41.4275 142.539 41.1743 143.187 40.8424C143.336 40.7704 143.485 40.6887 143.629 40.6023C145.084 39.7558 146.269 38.5154 147.049 37.024C147.35 36.4604 147.594 35.8683 147.779 35.2565C148.107 34.1384 148.269 32.9781 148.259 31.8128C148.266 30.8458 148.103 29.8852 147.779 28.9742ZM130.176 15.0167H134.234C135.834 15.0167 138.077 14.6276 139.402 15.6699C140.243 16.3183 140.435 17.4662 140.435 18.4701C140.435 20.5786 139.061 22.0627 136.934 22.0627H130.176V15.0167ZM141.074 33.9453C140.781 34.3934 140.384 34.7632 139.916 35.0227C139.448 35.2822 138.924 35.4234 138.389 35.4342C135.671 35.5687 132.914 35.4342 130.195 35.4342V28.3883C132.88 28.3883 135.565 28.3883 138.25 28.3883C140.305 28.3883 141.612 29.8772 141.612 31.8896C141.629 32.6118 141.443 33.3243 141.074 33.9453Z" fill="#FEB45C"/>
<path d="M173.998 35.3864V35.713C174.015 36.6799 173.929 37.6458 173.743 38.5948C173.622 39.2256 173.388 39.8292 173.052 40.3767C172.785 40.8003 172.423 41.1556 171.995 41.4141C171.577 41.6646 171.113 41.8279 170.631 41.8944H157.663C157.055 41.8972 156.448 41.8506 155.847 41.7551C154.81 41.6142 153.828 41.2035 152.999 40.564C151.904 39.661 151.352 38.3354 151.352 36.6255V13.8689C151.352 12.159 151.904 10.8334 152.999 9.93527C153.172 9.78944 153.357 9.6577 153.551 9.54139L153.729 9.44055C154.949 8.83556 156.302 8.54655 157.663 8.60002H173.21V8.92665C173.21 11.0592 172.903 12.5817 172.249 13.5759C171.596 14.5701 170.525 15.1273 169.084 15.1273H157.98V21.8515H168.647V22.2741C168.647 24.3586 168.33 25.8524 167.687 26.8322C167.366 27.3427 166.906 27.751 166.361 28.009C165.783 28.267 165.154 28.3933 164.521 28.3788H157.98V35.3767H169.949C170.196 35.3767 170.443 35.3944 170.688 35.4296L173.998 35.3864Z" fill="#FEB45C"/>
<path d="M120.656 25.2369C120.653 25.2081 120.653 25.1792 120.656 25.1504C120.822 21.1859 119.742 17.269 117.567 13.9499C116.317 12.1455 114.623 10.6933 112.649 9.73282C110.64 8.71308 108.418 8.18164 106.165 8.18164C103.912 8.18164 101.69 8.71308 99.6809 9.73282C97.7077 10.6946 96.0143 12.1466 94.7627 13.9499C92.5895 17.2694 91.5111 21.1864 91.6791 25.1504V25.333C91.5111 29.297 92.5895 33.2141 94.7627 36.5336C96.0143 38.3369 97.7077 39.7889 99.6809 40.7506C101.69 41.7704 103.912 42.3018 106.165 42.3018C108.418 42.3018 110.64 41.7704 112.649 40.7506C114.623 39.7901 116.317 38.3379 117.567 36.5336C119.742 33.2145 120.822 29.2975 120.656 25.333C120.653 25.301 120.653 25.2689 120.656 25.2369ZM109.445 34.2618C108.468 34.8877 107.331 35.2204 106.17 35.2204C105.009 35.2204 103.872 34.8877 102.894 34.2618C100.152 32.6624 99.6713 28.599 99.6857 25.6932V24.771C99.6857 21.8652 100.166 17.8019 102.894 16.2025C103.887 15.6199 105.018 15.3127 106.17 15.3127C107.321 15.3127 108.452 15.6199 109.445 16.2025C112.188 17.8019 112.668 21.8652 112.659 24.771C112.659 24.9199 112.659 25.0688 112.659 25.2273C112.659 25.3858 112.659 25.5347 112.659 25.7076C112.668 28.599 112.188 32.6624 109.445 34.2618Z" fill="#FEB45C"/>
<path d="M51.8865 22.4178C51.6894 20.2812 51.2048 18.1809 50.4456 16.1739C48.6054 11.4484 45.332 7.41744 41.0845 4.64674C36.026 1.38495 30.081 -0.229228 24.0675 0.0262543C19.5394 0.206119 15.119 1.46061 11.1715 3.68614C7.3624 5.80115 4.24397 8.9696 2.18985 12.8118C0.11936 16.9502 -0.506246 21.6625 0.412742 26.1978C0.945747 29.1233 2.16552 31.8806 3.97176 34.2428C6.93521 38.1573 11.6566 40.8997 16.4932 42.0813C16.6697 42.5677 16.8204 43.0631 16.9447 43.5654C17.5185 45.0496 18.4141 46.388 19.5671 47.4846C22.9292 50.7315 27.2231 50.938 31.5746 50.0495C44.8069 47.7873 53.4474 35.6453 51.8865 22.4178ZM24.1059 25.5254C24.1396 26.2266 24.178 26.923 24.178 27.4466C24.0579 32.4945 29.687 35.0785 33.784 32.6915C39.0673 29.5455 36.5985 21.1642 30.4219 21.193H28.3518C28.4526 19.1854 28.8321 17.293 29.956 16.5438C31.1227 15.6854 32.5618 15.2808 34.0049 15.4055C34.807 15.4763 35.5822 15.7294 36.2715 16.1456C36.9607 16.5618 37.5457 17.1301 37.9818 17.807C41.2046 23.0326 40.2728 30.3956 35.9117 34.3677C32.7786 36.8132 28.9605 38.2202 24.9897 38.3926C24.7784 38.3926 24.5574 38.4358 24.3413 38.4406C23.083 38.5274 21.8195 38.5001 20.5661 38.359V25.5157L24.1059 25.5254ZM28.4286 25.5254H30.4075C30.917 25.5254 31.4057 25.7278 31.766 26.0881C32.1263 26.4484 32.3287 26.937 32.3287 27.4466C32.3653 27.742 32.3148 28.0416 32.1834 28.3087C32.052 28.5758 31.8454 28.7986 31.589 28.9499C30.6284 29.507 28.9522 29.3101 28.5871 28.119C28.5119 27.7656 28.4845 27.4038 28.5055 27.0431C28.4863 26.5916 28.4671 25.9144 28.4382 25.5109L28.4286 25.5254ZM42.7608 39.0747C39.7331 42.5599 35.6016 44.9011 31.0559 45.7076C28.6063 46.1879 26.0127 46.5577 23.7649 45.2273C22.7505 44.6608 21.9178 43.818 21.3634 42.797C27.6409 43.0323 33.9473 41.5578 38.5966 37.7058C43.827 33.2726 45.6426 24.6993 43.049 18.2873H43.0826C41.5888 14.2479 38.5485 11.419 34.3651 11.0347C32.9158 10.9084 31.4562 11.0971 30.0866 11.5879C28.717 12.0787 27.4698 12.8599 26.4306 13.8781C24.6199 15.8281 24.1299 18.6043 24.0291 21.1739H20.5709V18.8924C20.4605 14.0894 14.8842 11.6879 10.9649 14.0126C5.7873 17.0721 8.02069 25.2468 13.9908 25.5014H16.229V37.4368C10.8929 35.7558 5.91217 31.947 4.70182 25.3621C4.25225 23.241 4.23317 21.0512 4.64569 18.9226C5.05821 16.794 5.89393 14.7699 7.10332 12.9703C9.45679 9.60821 13.0254 7.20672 16.8534 5.83306C20.7749 4.38788 24.9997 3.96477 29.1299 4.60353C34.4564 5.47287 39.5332 7.96562 43.0586 12.101C45.5062 14.9578 47.0463 18.4795 47.4821 22.2161C48.2842 28.2102 46.7857 34.459 42.7608 39.0747ZM14.2934 21.1739C13.7839 21.1739 13.2952 20.9714 12.9349 20.6111C12.5746 20.2508 12.3722 19.7622 12.3722 19.2527C12.3402 18.9617 12.393 18.6677 12.5242 18.4061C12.6555 18.1445 12.8595 17.9264 13.1119 17.7781C14.303 17.1009 16.3011 17.5764 16.1906 19.2527V21.1739H14.2934Z" fill="#FEB45C"/>
<path d="M116.584 57.766C116.584 58.262 116.493 58.7073 116.312 59.102C116.136 59.4913 115.891 59.822 115.576 60.094C115.267 60.3606 114.915 60.558 114.52 60.686C114.781 60.7766 115.005 60.9473 115.192 61.198C115.379 61.4433 115.531 61.7206 115.648 62.03L116.376 63.958C116.499 64.2833 116.611 64.5286 116.712 64.694C116.819 64.8593 116.944 64.998 117.088 65.11C116.981 65.27 116.821 65.3953 116.608 65.486C116.395 65.5713 116.189 65.614 115.992 65.614C115.688 65.614 115.464 65.5286 115.32 65.358C115.176 65.1873 115.043 64.9393 114.92 64.614L114.096 62.398C113.957 62.0193 113.773 61.7046 113.544 61.454C113.32 61.198 112.955 61.07 112.448 61.07H110.416V59.798C110.651 59.7873 110.92 59.7766 111.224 59.766C111.533 59.7553 111.837 59.75 112.136 59.75C112.435 59.7446 112.693 59.742 112.912 59.742C113.445 59.742 113.856 59.6433 114.144 59.446C114.432 59.2486 114.632 59.0006 114.744 58.702C114.856 58.398 114.912 58.086 114.912 57.766C114.912 57.4406 114.856 57.1286 114.744 56.83C114.632 56.526 114.432 56.278 114.144 56.086C113.856 55.894 113.445 55.798 112.912 55.798C112.752 55.798 112.563 55.798 112.344 55.798C112.131 55.798 111.912 55.798 111.688 55.798C111.464 55.7926 111.261 55.7873 111.08 55.782V65.502C110.957 65.5233 110.824 65.5393 110.68 65.55C110.536 65.5606 110.397 65.566 110.264 65.566C110.147 65.566 110.016 65.5606 109.872 65.55C109.728 65.5393 109.595 65.5233 109.472 65.502V54.662L109.576 54.566C110.173 54.5553 110.755 54.5446 111.32 54.534C111.891 54.518 112.445 54.51 112.984 54.51C113.725 54.51 114.365 54.6353 114.904 54.886C115.443 55.1366 115.856 55.5046 116.144 55.99C116.437 56.4753 116.584 57.0673 116.584 57.766ZM119.079 62.046V60.902H123.063V60.694C123.063 60.31 123.007 59.958 122.895 59.638C122.788 59.3126 122.612 59.054 122.367 58.862C122.127 58.67 121.81 58.574 121.415 58.574C120.85 58.574 120.426 58.8113 120.143 59.286C119.86 59.7553 119.719 60.398 119.719 61.214V61.694C119.719 62.2113 119.772 62.678 119.879 63.094C119.991 63.5046 120.183 63.83 120.455 64.07C120.727 64.3046 121.111 64.422 121.607 64.422C122.018 64.422 122.41 64.3633 122.783 64.246C123.156 64.1233 123.514 63.974 123.855 63.798C123.988 63.9206 124.098 64.0806 124.183 64.278C124.274 64.47 124.33 64.646 124.351 64.806C123.972 65.078 123.519 65.2966 122.991 65.462C122.468 65.6273 121.93 65.71 121.375 65.71C120.751 65.71 120.228 65.598 119.807 65.374C119.386 65.1446 119.05 64.838 118.799 64.454C118.548 64.0646 118.37 63.622 118.263 63.126C118.156 62.63 118.103 62.11 118.103 61.566C118.103 60.7713 118.226 60.062 118.471 59.438C118.722 58.8086 119.092 58.3126 119.583 57.95C120.074 57.5873 120.684 57.406 121.415 57.406C122.103 57.406 122.682 57.5606 123.151 57.87C123.62 58.174 123.975 58.5846 124.215 59.102C124.455 59.614 124.575 60.1873 124.575 60.822C124.575 61.0673 124.567 61.2806 124.551 61.462C124.535 61.638 124.506 61.8326 124.463 62.046H119.079ZM130.863 60.614C130.879 60.2726 130.847 59.95 130.767 59.646C130.692 59.342 130.545 59.094 130.327 58.902C130.113 58.71 129.807 58.614 129.407 58.614C128.889 58.614 128.481 58.8646 128.183 59.366C127.884 59.8673 127.735 60.614 127.735 61.606C127.735 62.5766 127.897 63.2886 128.223 63.742C128.553 64.19 129.009 64.414 129.591 64.414C129.964 64.414 130.313 64.3286 130.639 64.158C130.969 63.9873 131.276 63.798 131.559 63.59C131.697 63.6753 131.833 63.8113 131.967 63.998C132.1 64.1793 132.188 64.358 132.231 64.534C131.868 64.886 131.441 65.1713 130.951 65.39C130.46 65.6033 129.929 65.71 129.359 65.71C128.788 65.71 128.297 65.6006 127.887 65.382C127.476 65.158 127.14 64.8566 126.879 64.478C126.617 64.094 126.425 63.6566 126.303 63.166C126.18 62.67 126.119 62.15 126.119 61.606C126.119 60.6246 126.279 59.8246 126.599 59.206C126.919 58.5873 127.332 58.134 127.839 57.846C128.351 57.5526 128.887 57.406 129.447 57.406C129.937 57.406 130.361 57.4806 130.719 57.63C131.081 57.7793 131.38 57.9713 131.615 58.206C131.855 58.4406 132.031 58.6993 132.143 58.982C132.26 59.2593 132.319 59.5313 132.319 59.798C132.319 60.0593 132.257 60.2726 132.135 60.438C132.012 60.598 131.807 60.678 131.519 60.678C131.396 60.678 131.284 60.6726 131.183 60.662C131.081 60.6513 130.975 60.6353 130.863 60.614ZM134.532 62.046V60.902H138.516V60.694C138.516 60.31 138.46 59.958 138.348 59.638C138.241 59.3126 138.065 59.054 137.82 58.862C137.58 58.67 137.263 58.574 136.868 58.574C136.303 58.574 135.879 58.8113 135.596 59.286C135.313 59.7553 135.172 60.398 135.172 61.214V61.694C135.172 62.2113 135.225 62.678 135.332 63.094C135.444 63.5046 135.636 63.83 135.908 64.07C136.18 64.3046 136.564 64.422 137.06 64.422C137.471 64.422 137.863 64.3633 138.236 64.246C138.609 64.1233 138.967 63.974 139.308 63.798C139.441 63.9206 139.551 64.0806 139.636 64.278C139.727 64.47 139.783 64.646 139.804 64.806C139.425 65.078 138.972 65.2966 138.444 65.462C137.921 65.6273 137.383 65.71 136.828 65.71C136.204 65.71 135.681 65.598 135.26 65.374C134.839 65.1446 134.503 64.838 134.252 64.454C134.001 64.0646 133.823 63.622 133.716 63.126C133.609 62.63 133.556 62.11 133.556 61.566C133.556 60.7713 133.679 60.062 133.924 59.438C134.175 58.8086 134.545 58.3126 135.036 57.95C135.527 57.5873 136.137 57.406 136.868 57.406C137.556 57.406 138.135 57.5606 138.604 57.87C139.073 58.174 139.428 58.5846 139.668 59.102C139.908 59.614 140.028 60.1873 140.028 60.822C140.028 61.0673 140.02 61.2806 140.004 61.462C139.988 61.638 139.959 61.8326 139.916 62.046H134.532ZM142.708 57.542C143.049 57.542 143.292 57.6486 143.436 57.862C143.585 58.0753 143.66 58.3713 143.66 58.75V67.934C143.66 68.286 143.601 68.542 143.484 68.702C143.372 68.8673 143.148 68.95 142.812 68.95H142.228L142.124 68.846V57.646L142.228 57.542H142.708ZM148.588 61.462C148.588 62.4166 148.438 63.2033 148.14 63.822C147.841 64.4353 147.457 64.8913 146.988 65.19C146.518 65.4886 146.033 65.638 145.532 65.638C145.025 65.638 144.558 65.534 144.132 65.326C143.705 65.118 143.305 64.8753 142.932 64.598L143.1 63.342C143.404 63.5766 143.748 63.8086 144.132 64.038C144.516 64.262 144.913 64.374 145.324 64.374C145.628 64.374 145.905 64.27 146.156 64.062C146.412 63.854 146.614 63.534 146.764 63.102C146.918 62.67 146.996 62.1206 146.996 61.454C146.996 60.8033 146.926 60.278 146.788 59.878C146.649 59.478 146.465 59.1846 146.236 58.998C146.006 58.8113 145.758 58.718 145.492 58.718C145.214 58.718 144.924 58.7926 144.62 58.942C144.321 59.0913 144.044 59.3206 143.788 59.63C143.537 59.934 143.342 60.3206 143.204 60.79L142.892 59.59C142.998 59.2326 143.19 58.8886 143.468 58.558C143.745 58.222 144.086 57.9473 144.492 57.734C144.897 57.5153 145.348 57.406 145.844 57.406C146.446 57.406 146.95 57.5793 147.356 57.926C147.766 58.2673 148.073 58.742 148.276 59.35C148.484 59.958 148.588 60.662 148.588 61.462ZM154.785 60.614C154.801 60.2726 154.769 59.95 154.689 59.646C154.614 59.342 154.467 59.094 154.249 58.902C154.035 58.71 153.729 58.614 153.329 58.614C152.811 58.614 152.403 58.8646 152.105 59.366C151.806 59.8673 151.657 60.614 151.657 61.606C151.657 62.5766 151.819 63.2886 152.145 63.742C152.475 64.19 152.931 64.414 153.513 64.414C153.886 64.414 154.235 64.3286 154.561 64.158C154.891 63.9873 155.198 63.798 155.481 63.59C155.619 63.6753 155.755 63.8113 155.889 63.998C156.022 64.1793 156.11 64.358 156.153 64.534C155.79 64.886 155.363 65.1713 154.873 65.39C154.382 65.6033 153.851 65.71 153.281 65.71C152.71 65.71 152.219 65.6006 151.809 65.382C151.398 65.158 151.062 64.8566 150.801 64.478C150.539 64.094 150.347 63.6566 150.225 63.166C150.102 62.67 150.041 62.15 150.041 61.606C150.041 60.6246 150.201 59.8246 150.521 59.206C150.841 58.5873 151.254 58.134 151.761 57.846C152.273 57.5526 152.809 57.406 153.369 57.406C153.859 57.406 154.283 57.4806 154.641 57.63C155.003 57.7793 155.302 57.9713 155.537 58.206C155.777 58.4406 155.953 58.6993 156.065 58.982C156.182 59.2593 156.241 59.5313 156.241 59.798C156.241 60.0593 156.179 60.2726 156.057 60.438C155.934 60.598 155.729 60.678 155.441 60.678C155.318 60.678 155.206 60.6726 155.105 60.662C155.003 60.6513 154.897 60.6353 154.785 60.614ZM152.305 66.686C152.369 66.5046 152.454 66.286 152.561 66.03C152.673 65.774 152.774 65.566 152.865 65.406H153.857C153.803 65.4806 153.742 65.59 153.673 65.734C153.603 65.8833 153.547 66.006 153.505 66.102C153.905 66.1393 154.243 66.2806 154.521 66.526C154.803 66.7713 154.945 67.0966 154.945 67.502C154.945 67.9553 154.763 68.3286 154.401 68.622C154.043 68.9153 153.593 69.062 153.049 69.062C152.803 69.062 152.566 69.03 152.337 68.966C152.113 68.9073 151.934 68.8326 151.801 68.742C151.811 68.5926 151.846 68.446 151.905 68.302C151.969 68.1633 152.043 68.0406 152.129 67.934C152.23 67.9926 152.353 68.0433 152.497 68.086C152.641 68.1286 152.785 68.15 152.929 68.15C153.185 68.15 153.371 68.086 153.489 67.958C153.606 67.8353 153.665 67.6886 153.665 67.518C153.665 67.342 153.606 67.1926 153.489 67.07C153.371 66.9473 153.195 66.886 152.961 66.886C152.897 66.886 152.833 66.8913 152.769 66.902C152.705 66.918 152.643 66.9393 152.585 66.966C152.446 66.902 152.353 66.8086 152.305 66.686ZM157.564 63.358C157.564 62.75 157.697 62.2513 157.964 61.862C158.23 61.4726 158.593 61.1873 159.052 61.006C159.51 60.8193 160.03 60.726 160.612 60.726C160.916 60.726 161.257 60.7393 161.636 60.766C162.02 60.7926 162.372 60.846 162.692 60.926V61.982C162.404 61.9126 162.078 61.8673 161.716 61.846C161.353 61.8246 161.014 61.814 160.7 61.814C160.198 61.814 159.809 61.942 159.532 62.198C159.26 62.4486 159.124 62.798 159.124 63.246C159.124 63.5873 159.217 63.8753 159.404 64.11C159.596 64.3446 159.873 64.462 160.236 64.462C160.63 64.462 161.049 64.3233 161.492 64.046C161.94 63.7686 162.313 63.3606 162.612 62.822L162.86 64.054C162.668 64.278 162.43 64.518 162.148 64.774C161.865 65.03 161.537 65.2513 161.164 65.438C160.79 65.6193 160.372 65.71 159.908 65.71C159.38 65.71 158.942 65.5926 158.596 65.358C158.249 65.1233 157.99 64.8273 157.82 64.47C157.649 64.1073 157.564 63.7366 157.564 63.358ZM164.18 64.814C164.137 64.9526 164.057 65.102 163.94 65.262C163.828 65.422 163.705 65.542 163.572 65.622C163.246 65.5473 162.985 65.4193 162.788 65.238C162.596 65.0566 162.452 64.8433 162.356 64.598C162.26 64.3473 162.204 64.0806 162.188 63.798V60.174C162.188 59.6513 162.07 59.278 161.836 59.054C161.601 58.83 161.276 58.718 160.86 58.718C160.449 58.718 160.028 58.7793 159.596 58.902C159.169 59.0246 158.745 59.1713 158.324 59.342C158.196 59.214 158.086 59.0406 157.996 58.822C157.91 58.598 157.862 58.3846 157.852 58.182C158.145 58.054 158.476 57.934 158.844 57.822C159.217 57.71 159.601 57.6193 159.996 57.55C160.396 57.4806 160.777 57.446 161.14 57.446C161.668 57.446 162.126 57.5446 162.516 57.742C162.905 57.934 163.204 58.2273 163.412 58.622C163.625 59.0166 163.732 59.518 163.732 60.126V63.406C163.732 63.7153 163.758 63.9846 163.812 64.214C163.87 64.4433 163.993 64.6433 164.18 64.814ZM160.172 55.966C160.113 55.9286 160.036 55.8913 159.94 55.854C159.849 55.8166 159.75 55.798 159.644 55.798C159.478 55.798 159.342 55.846 159.236 55.942C159.134 56.0326 159.054 56.1153 158.996 56.19L158.812 56.43C158.657 56.4193 158.505 56.3713 158.356 56.286C158.206 56.1953 158.105 56.078 158.052 55.934L158.188 55.63C158.342 55.278 158.556 55.0006 158.828 54.798C159.105 54.59 159.412 54.486 159.748 54.486C159.929 54.486 160.097 54.5126 160.252 54.566C160.406 54.6193 160.534 54.6726 160.636 54.726L161.332 55.094C161.39 55.126 161.468 55.1633 161.564 55.206C161.66 55.2486 161.764 55.27 161.876 55.27C162.03 55.27 162.156 55.2273 162.252 55.142C162.348 55.0566 162.433 54.966 162.508 54.87L162.692 54.638C162.846 54.6433 162.996 54.694 163.14 54.79C163.289 54.8806 163.393 54.9926 163.452 55.126L163.316 55.438C163.15 55.806 162.929 56.0886 162.652 56.286C162.38 56.4833 162.078 56.582 161.748 56.582C161.577 56.582 161.417 56.558 161.268 56.51C161.118 56.4566 160.985 56.4006 160.868 56.342L160.172 55.966ZM172.467 61.558C172.467 62.3686 172.336 63.086 172.075 63.71C171.819 64.334 171.435 64.8246 170.923 65.182C170.416 65.534 169.784 65.71 169.027 65.71C168.27 65.71 167.638 65.5313 167.131 65.174C166.624 64.8166 166.243 64.326 165.987 63.702C165.731 63.0726 165.603 62.358 165.603 61.558C165.603 60.7473 165.731 60.03 165.987 59.406C166.248 58.782 166.632 58.294 167.139 57.942C167.651 57.5846 168.28 57.406 169.027 57.406C169.79 57.406 170.424 57.5846 170.931 57.942C171.443 58.2993 171.827 58.79 172.083 59.414C172.339 60.038 172.467 60.7526 172.467 61.558ZM167.219 61.558C167.219 62.0593 167.272 62.5366 167.379 62.99C167.486 63.438 167.67 63.8033 167.931 64.086C168.198 64.3633 168.568 64.502 169.043 64.502C169.512 64.502 169.878 64.3633 170.139 64.086C170.4 63.8033 170.584 63.438 170.691 62.99C170.798 62.5366 170.851 62.0593 170.851 61.558C170.851 61.0566 170.798 60.582 170.691 60.134C170.584 59.6806 170.4 59.3126 170.139 59.03C169.878 58.742 169.512 58.598 169.043 58.598C168.568 58.598 168.198 58.742 167.931 59.03C167.67 59.3126 167.486 59.6806 167.379 60.134C167.272 60.582 167.219 61.0566 167.219 61.558Z" fill="white"/>
</svg>
