<svg width="174" height="71" viewBox="0 0 174 71" fill="none" xmlns="http://www.w3.org/2000/svg">
<path d="M69.5018 9.51767C70.5931 10.4181 71.145 11.7418 71.145 13.4597V21.8564H81.9339V8.18359H82.2596C84.2804 8.18359 85.851 8.63174 86.9237 9.51767C87.9963 10.4036 88.569 11.7418 88.569 13.4597V42.3199H88.2432C86.2203 42.3199 84.6518 41.8717 83.5792 40.9879C82.5065 40.104 81.9339 38.7637 81.9339 37.0458V28.4313H71.1409V42.3323H70.8172C68.7943 42.3323 67.2258 41.8842 66.1531 41.0003C65.0804 40.1165 64.5078 38.7762 64.5078 37.0582V8.18359H64.8315C66.8585 8.18359 68.4291 8.63174 69.5018 9.51767Z" fill="#FEB45C"/>
<path d="M147.777 28.993C147.574 28.4376 147.311 27.906 146.992 27.4079C146.249 26.2256 145.18 25.2838 143.913 24.6961C144.84 23.9798 145.597 23.0681 146.131 22.0259C146.752 20.8493 147.077 19.5389 147.077 18.2083C147.077 15.3036 146.233 12.955 144.565 11.2205C144.062 10.6952 143.49 10.2402 142.866 9.86771C142.32 9.54249 141.74 9.28075 141.135 9.08759C140.068 8.7548 138.956 8.59099 137.838 8.60209H130.027C128.425 8.60209 127.108 8.88426 126.085 9.432C126.025 9.4652 125.964 9.49839 125.906 9.53574C125.712 9.65109 125.527 9.78151 125.352 9.9258C124.259 10.8283 123.707 12.152 123.707 13.8679V36.6282C123.707 38.3399 124.261 39.6615 125.352 40.5702C126.078 41.1698 127.033 41.5682 128.201 41.7632C128.801 41.8603 129.407 41.9075 130.014 41.9043H138.604C139.454 41.9088 140.302 41.812 141.129 41.6159C141.837 41.4474 142.522 41.1953 143.17 40.8649C143.32 40.7881 143.467 40.7092 143.612 40.6242C145.067 39.7765 146.252 38.5361 147.034 37.0452C147.335 36.4813 147.579 35.8892 147.764 35.2775C148.096 34.1591 148.26 32.9978 148.252 31.8313C148.261 30.8647 148.1 29.904 147.777 28.993ZM130.189 15.036H134.251C135.849 15.036 138.077 14.648 139.419 15.6895C140.249 16.3389 140.457 17.4842 140.457 18.4884C140.457 20.6005 139.087 22.0819 136.959 22.0819H130.189V15.036ZM141.06 33.9787C140.77 34.4276 140.373 34.7981 139.905 35.0576C139.437 35.317 138.913 35.4573 138.378 35.4663C135.66 35.6012 132.902 35.4663 130.18 35.4663V28.4307C132.867 28.4307 135.554 28.4141 138.241 28.4307C140.295 28.4307 141.621 29.9204 141.621 31.9288C141.632 32.6513 141.438 33.3622 141.06 33.9787Z" fill="#FEB45C"/>
<path d="M174 35.426V35.7517C174.015 36.7139 173.929 37.6749 173.743 38.6191C173.621 39.2499 173.387 39.854 173.054 40.4034C172.788 40.8284 172.425 41.184 171.994 41.4408C171.575 41.6832 171.112 41.8404 170.633 41.9034H157.659C157.051 41.9067 156.444 41.8595 155.844 41.7623C154.676 41.5694 153.719 41.171 152.993 40.5714C151.902 39.6689 151.348 38.3473 151.348 36.6293V13.8732C151.348 12.1636 151.902 10.8399 152.993 9.93113C153.168 9.78779 153.353 9.65743 153.547 9.54107C153.605 9.50372 153.665 9.47053 153.727 9.43733C154.738 8.87922 156.057 8.60742 157.669 8.60742H173.218V8.92901C173.218 11.064 172.909 12.5848 172.272 13.5807C171.614 14.618 170.55 15.1305 169.108 15.1305H157.981V21.8486H168.655V22.2636C168.645 24.3384 168.336 25.8405 167.709 26.8281C167.388 27.3381 166.928 27.7461 166.384 28.0045C165.805 28.2636 165.177 28.3905 164.543 28.3759H157.981V35.3741H169.95C170.197 35.3729 170.444 35.3903 170.689 35.426H174Z" fill="#FEB45C"/>
<path d="M120.65 25.2579C120.65 25.2289 120.65 25.1998 120.65 25.1728C120.756 21.2847 119.82 17.2534 117.565 13.969C116.312 12.1673 114.62 10.716 112.648 9.75311C110.638 8.73288 108.416 8.20117 106.162 8.20117C103.908 8.20117 101.686 8.73288 99.6763 9.75311C97.7038 10.7151 96.0109 12.1666 94.7591 13.969C92.51 17.2555 91.5681 21.2868 91.6718 25.1728C91.6718 25.1998 91.6718 25.2289 91.6718 25.2579C91.6718 25.2849 91.6718 25.3139 91.6718 25.343C91.5681 29.2311 92.5017 33.2624 94.7591 36.5468C96.0097 38.3503 97.703 39.8021 99.6763 40.7627C101.686 41.7829 103.908 42.3146 106.162 42.3146C108.416 42.3146 110.638 41.7829 112.648 40.7627C114.62 39.801 116.313 38.3494 117.565 36.5468C119.814 33.2624 120.756 29.2311 120.65 25.343C120.652 25.3201 120.652 25.2849 120.65 25.2579ZM109.446 34.2832C107.26 35.5612 105.076 35.5612 102.894 34.2832C100.151 32.6815 99.6722 28.6211 99.6825 25.7144C99.6825 25.567 99.6825 25.4135 99.6825 25.2579C99.6825 25.1002 99.6825 24.9488 99.6825 24.8015C99.6825 21.8968 100.151 17.8323 102.894 16.2306C103.888 15.6483 105.019 15.3413 106.17 15.3413C107.322 15.3413 108.453 15.6483 109.446 16.2306C112.189 17.8323 112.669 21.8947 112.656 24.8015C112.656 24.9488 112.656 25.1002 112.656 25.2579C112.656 25.4135 112.656 25.567 112.656 25.7144C112.662 28.6211 112.183 32.6815 109.44 34.2832H109.446Z" fill="#FEB45C"/>
<path d="M51.8646 22.4147C51.6695 20.2695 51.1808 18.1612 50.4122 16.1489C48.5719 11.4341 45.3039 7.41239 41.0654 4.64636C36.1212 1.38481 29.9529 -0.227292 24.0522 0.0258306C19.5234 0.208254 15.1029 1.46485 11.1554 3.69196C7.40421 5.8352 4.16549 8.93699 2.16955 12.7961C0.040832 16.9353 -0.452965 21.6471 0.389394 26.1908C0.924247 29.1194 2.14817 31.8788 3.96008 34.241C6.92286 38.154 11.6368 40.8968 16.4793 42.0795C16.5581 42.1002 16.8693 43.4032 16.9316 43.5609C17.5067 45.0449 18.4021 46.3839 19.5541 47.4822C22.9215 50.7292 27.2142 50.9367 31.5878 50.0466C44.7896 47.8121 53.4373 35.6663 51.8646 22.4147ZM24.0833 25.5269C24.1207 26.2282 24.1559 26.9253 24.158 27.444C24.0356 32.4898 29.6666 35.0729 33.7601 32.687C39.0632 29.5395 36.5735 21.147 30.4052 21.1885H28.3574C28.4611 19.1822 28.8512 17.288 29.9674 16.539L29.957 16.5244C31.1218 15.6643 32.5603 15.2586 34.0028 15.3833C35.6232 15.5265 36.9718 16.346 37.9802 17.7838C41.2023 23.006 40.2624 30.3715 35.9054 34.3447C33.0007 36.7245 29.1396 38.1561 24.9755 38.4092V38.3905C24.768 38.4154 24.5419 38.4341 24.324 38.4382V38.4507C23.0662 38.5383 21.803 38.5119 20.55 38.3718V25.5269H24.0833ZM28.4279 25.5269H30.4052C30.9112 25.5274 31.3964 25.7287 31.7543 26.0866C32.1121 26.4444 32.3134 26.9296 32.314 27.4357C32.3326 28.1432 32.1065 28.6391 31.5733 28.942C30.6127 29.498 28.9362 29.2988 28.5711 28.1121C28.4953 27.7592 28.4681 27.3976 28.4902 27.0373C28.4756 26.6099 28.4549 25.9419 28.4279 25.5269ZM42.7688 39.0918C39.7915 42.5836 35.5672 44.9012 31.065 45.7311C28.6126 46.1937 26.0191 46.5797 23.7721 45.2642C22.7599 44.696 21.9291 43.853 21.3757 42.8326C27.654 43.0691 33.9613 41.5877 38.6088 37.7432C43.8393 33.3135 45.6631 24.7385 43.0613 18.3254L43.0924 18.3129C41.6027 14.2754 38.5632 11.4475 34.3784 11.0636C31.3741 10.8209 28.3615 11.8935 26.4195 13.8936C24.6103 15.8418 24.1207 18.6179 24.0066 21.1885H20.55V18.9063C20.44 14.0887 14.863 11.7047 10.9542 14.0264C5.77759 17.0826 8.00797 25.2613 13.9833 25.5186H16.2179V37.4527C10.8836 35.7721 5.90207 31.9649 4.66758 25.3775C3.83767 21.0682 4.56384 16.6137 7.09507 12.9849C9.44579 9.61337 13.0144 7.23775 16.8465 5.84558C20.769 4.40152 24.9943 3.97885 29.125 4.61731C34.4531 5.48664 39.5259 7.9577 43.0634 12.1135C45.5144 14.9751 47.0547 18.5037 47.4868 22.2467C48.2752 28.2241 46.7752 34.4796 42.7688 39.098V39.0918ZM14.3008 21.1948C14.0474 21.1942 13.7967 21.1434 13.5632 21.0452C13.3297 20.947 13.118 20.8034 12.9404 20.6228C12.7629 20.4421 12.6229 20.228 12.5288 19.9928C12.4346 19.7576 12.3881 19.5061 12.392 19.2528C12.392 18.5494 12.6181 18.0805 13.1347 17.7776C14.3257 17.1012 16.3216 17.5701 16.2116 19.2528V21.1948H14.3008Z" fill="#FEB45C"/>
<path d="M79.96 54.572C80.088 54.5507 80.2427 54.5347 80.424 54.524C80.6053 54.5133 80.7627 54.508 80.896 54.508C81.024 54.508 81.1787 54.5133 81.36 54.524C81.5413 54.5347 81.688 54.5533 81.8 54.58L85.4 65.404C85.2827 65.4733 85.1387 65.524 84.968 65.556C84.8027 65.5933 84.632 65.612 84.456 65.612C84.2 65.612 84 65.5533 83.856 65.436C83.7173 65.3187 83.5973 65.092 83.496 64.756L81.664 59.036C81.52 58.572 81.3707 58.084 81.216 57.572C81.0667 57.06 80.9387 56.5987 80.832 56.188H80.744C80.664 56.5347 80.5627 56.924 80.44 57.356C80.3227 57.788 80.2213 58.1427 80.136 58.42L77.864 65.516C77.768 65.5373 77.6587 65.5533 77.536 65.564C77.4187 65.5747 77.296 65.58 77.168 65.58C77.0293 65.58 76.8907 65.5693 76.752 65.548C76.6187 65.5267 76.496 65.5 76.384 65.468L76.336 65.396L79.96 54.572ZM79.696 62.828C79.648 62.828 79.544 62.828 79.384 62.828C79.2293 62.8227 79.072 62.82 78.912 62.82C78.7573 62.8147 78.6533 62.812 78.6 62.812H77.872L78.376 61.492H79.016C79.0693 61.492 79.1653 61.492 79.304 61.492C79.4427 61.4867 79.5787 61.484 79.712 61.484C79.8507 61.4787 79.944 61.476 79.992 61.476H81.632C81.68 61.476 81.7733 61.4787 81.912 61.484C82.056 61.484 82.1973 61.4867 82.336 61.492C82.48 61.492 82.5787 61.492 82.632 61.492H83.288L83.72 62.812H82.992C82.944 62.812 82.8373 62.8147 82.672 62.82C82.512 62.82 82.352 62.8227 82.192 62.828C82.0373 62.828 81.936 62.828 81.888 62.828H79.696ZM92.8163 63.26C92.8163 63.5693 92.8456 63.8653 92.9043 64.148C92.9683 64.4307 93.0883 64.652 93.2643 64.812C93.2216 64.9507 93.1416 65.1 93.0243 65.26C92.9123 65.42 92.7896 65.54 92.6563 65.62C92.1549 65.508 91.8003 65.2573 91.5923 64.868C91.3896 64.4787 91.2883 64.036 91.2883 63.54V53.836L91.3843 53.732H91.9763C92.3069 53.732 92.5283 53.8147 92.6403 53.98C92.7576 54.14 92.8163 54.396 92.8163 54.748V63.26ZM86.3843 61.652C86.3843 60.6973 86.5336 59.9107 86.8322 59.292C87.1309 58.6733 87.5149 58.2173 87.9843 57.924C88.4536 57.6253 88.9363 57.476 89.4323 57.476C89.9389 57.476 90.4056 57.58 90.8323 57.788C91.2589 57.996 91.6589 58.2387 92.0323 58.516L91.8723 59.772C91.5683 59.532 91.2243 59.3 90.8403 59.076C90.4563 58.852 90.0563 58.74 89.6403 58.74C89.3416 58.74 89.0643 58.844 88.8083 59.052C88.5523 59.26 88.3496 59.58 88.2003 60.012C88.0509 60.444 87.9763 60.9933 87.9763 61.66C87.9763 62.3053 88.0456 62.8307 88.1843 63.236C88.3229 63.636 88.5069 63.9293 88.7363 64.116C88.9656 64.3027 89.2109 64.396 89.4723 64.396C89.7496 64.396 90.0376 64.3213 90.3363 64.172C90.6403 64.0227 90.9203 63.796 91.1763 63.492C91.4323 63.1827 91.6269 62.7933 91.7603 62.324L92.0723 63.524C91.9709 63.8813 91.7816 64.228 91.5043 64.564C91.2269 64.8947 90.8856 65.1693 90.4803 65.388C90.0749 65.6013 89.6216 65.708 89.1203 65.708C88.5176 65.708 88.0136 65.5373 87.6083 65.196C87.2029 64.8493 86.8963 64.372 86.6883 63.764C86.4856 63.156 86.3843 62.452 86.3843 61.652ZM96.093 57.54C96.4183 57.54 96.645 57.6387 96.773 57.836C96.901 58.028 96.965 58.3 96.965 58.652V65.5C96.7517 65.5427 96.4957 65.564 96.197 65.564C95.893 65.564 95.629 65.5427 95.405 65.5V57.652L95.509 57.54H96.093ZM99.741 60.468C99.741 59.892 99.661 59.484 99.501 59.244C99.3463 59.004 99.101 58.884 98.765 58.884C98.4983 58.884 98.213 58.9667 97.909 59.132C97.605 59.2973 97.3197 59.5213 97.053 59.804C96.7863 60.0867 96.5783 60.4013 96.429 60.748V59.196C96.6583 58.86 96.9223 58.564 97.221 58.308C97.525 58.0467 97.8477 57.8413 98.189 57.692C98.5357 57.5427 98.8877 57.468 99.245 57.468C99.709 57.468 100.093 57.58 100.397 57.804C100.706 58.0227 100.936 58.3213 101.085 58.7C101.234 59.0733 101.309 59.4893 101.309 59.948V65.5C101.09 65.5427 100.832 65.564 100.533 65.564C100.229 65.564 99.965 65.5427 99.741 65.5V60.468ZM104.093 60.452C104.093 59.876 104.01 59.4707 103.845 59.236C103.685 59.0013 103.44 58.884 103.109 58.884C102.848 58.884 102.568 58.964 102.269 59.124C101.97 59.2787 101.685 59.5 101.413 59.788C101.141 60.0707 100.914 60.4013 100.733 60.78V58.988C100.994 58.7 101.28 58.4413 101.589 58.212C101.904 57.9827 102.232 57.8013 102.573 57.668C102.914 57.5347 103.261 57.468 103.613 57.468C104.077 57.468 104.458 57.58 104.757 57.804C105.061 58.028 105.288 58.3293 105.437 58.708C105.586 59.0813 105.661 59.5 105.661 59.964V63.844C105.661 64.1213 105.677 64.3827 105.709 64.628C105.746 64.8733 105.813 65.0867 105.909 65.268C105.792 65.364 105.645 65.444 105.469 65.508C105.293 65.572 105.112 65.604 104.925 65.604C104.621 65.604 104.405 65.5213 104.277 65.356C104.154 65.1853 104.093 64.9347 104.093 64.604V60.452ZM109.899 65.5C109.681 65.5427 109.422 65.564 109.123 65.564C108.825 65.564 108.563 65.5427 108.339 65.5V59.58C108.339 59.292 108.289 59.084 108.187 58.956C108.091 58.8227 107.913 58.756 107.651 58.756H107.475C107.433 58.5747 107.411 58.3907 107.411 58.204C107.411 58.108 107.417 58.0147 107.427 57.924C107.438 57.828 107.454 57.7293 107.475 57.628C107.673 57.6013 107.857 57.5827 108.027 57.572C108.198 57.5613 108.339 57.556 108.451 57.556H108.651C109.041 57.556 109.345 57.6787 109.563 57.924C109.787 58.1693 109.899 58.5027 109.899 58.924V65.5ZM107.843 55.484C107.843 55.2227 107.891 54.9933 107.987 54.796C108.083 54.7427 108.211 54.6973 108.371 54.66C108.531 54.6227 108.686 54.604 108.835 54.604C108.974 54.604 109.129 54.6227 109.299 54.66C109.475 54.6973 109.603 54.7427 109.683 54.796C109.726 54.8867 109.761 54.9987 109.787 55.132C109.814 55.26 109.827 55.3773 109.827 55.484C109.827 55.7507 109.779 55.9827 109.683 56.18C109.609 56.2333 109.483 56.2787 109.307 56.316C109.131 56.3533 108.974 56.372 108.835 56.372C108.686 56.372 108.529 56.3533 108.363 56.316C108.203 56.2787 108.078 56.2333 107.987 56.18C107.891 55.9827 107.843 55.7507 107.843 55.484ZM113.124 57.54C113.455 57.54 113.682 57.6387 113.804 57.836C113.932 58.028 113.996 58.3 113.996 58.652V65.5C113.783 65.5427 113.527 65.564 113.228 65.564C112.924 65.564 112.66 65.5427 112.436 65.5V57.644L112.54 57.54H113.124ZM118.684 63.844C118.684 64.1213 118.7 64.3827 118.732 64.628C118.77 64.8733 118.836 65.0867 118.932 65.268C118.815 65.364 118.668 65.444 118.492 65.508C118.316 65.572 118.135 65.604 117.948 65.604C117.644 65.604 117.428 65.5213 117.3 65.356C117.178 65.1853 117.116 64.9347 117.116 64.604V60.46C117.116 59.9053 117.047 59.5053 116.908 59.26C116.77 59.0093 116.498 58.884 116.092 58.884C115.81 58.884 115.508 58.9507 115.188 59.084C114.868 59.212 114.567 59.396 114.284 59.636C114.002 59.876 113.772 60.1533 113.596 60.468V58.948C113.954 58.532 114.394 58.1827 114.916 57.9C115.444 57.612 115.996 57.468 116.572 57.468C117.074 57.468 117.479 57.5853 117.788 57.82C118.098 58.0493 118.324 58.3613 118.468 58.756C118.612 59.1453 118.684 59.5827 118.684 60.068V63.844ZM122.931 65.5C122.712 65.5427 122.453 65.564 122.155 65.564C121.856 65.564 121.595 65.5427 121.371 65.5V59.58C121.371 59.292 121.32 59.084 121.219 58.956C121.123 58.8227 120.944 58.756 120.683 58.756H120.507C120.464 58.5747 120.443 58.3907 120.443 58.204C120.443 58.108 120.448 58.0147 120.459 57.924C120.469 57.828 120.485 57.7293 120.507 57.628C120.704 57.6013 120.888 57.5827 121.059 57.572C121.229 57.5613 121.371 57.556 121.483 57.556H121.683C122.072 57.556 122.376 57.6787 122.595 57.924C122.819 58.1693 122.931 58.5027 122.931 58.924V65.5ZM120.875 55.484C120.875 55.2227 120.923 54.9933 121.019 54.796C121.115 54.7427 121.243 54.6973 121.403 54.66C121.563 54.6227 121.717 54.604 121.867 54.604C122.005 54.604 122.16 54.6227 122.331 54.66C122.507 54.6973 122.635 54.7427 122.715 54.796C122.757 54.8867 122.792 54.9987 122.819 55.132C122.845 55.26 122.859 55.3773 122.859 55.484C122.859 55.7507 122.811 55.9827 122.715 56.18C122.64 56.2333 122.515 56.2787 122.339 56.316C122.163 56.3533 122.005 56.372 121.867 56.372C121.717 56.372 121.56 56.3533 121.395 56.316C121.235 56.2787 121.109 56.2333 121.019 56.18C120.923 55.9827 120.875 55.7507 120.875 55.484ZM124.7 64.908C124.71 64.7267 124.766 64.5293 124.868 64.316C124.974 64.0973 125.094 63.9293 125.228 63.812C125.564 63.9933 125.924 64.1587 126.308 64.308C126.697 64.452 127.089 64.524 127.484 64.524C127.937 64.524 128.294 64.4253 128.556 64.228C128.822 64.0307 128.958 63.78 128.964 63.476C128.964 63.2413 128.876 63.0253 128.7 62.828C128.524 62.6307 128.265 62.4707 127.924 62.348L126.996 62.004C126.628 61.8707 126.289 61.7053 125.98 61.508C125.67 61.3053 125.422 61.06 125.236 60.772C125.054 60.484 124.964 60.1373 124.964 59.732C124.964 59.252 125.086 58.8387 125.332 58.492C125.577 58.1453 125.91 57.8787 126.332 57.692C126.758 57.5 127.236 57.404 127.764 57.404C128.19 57.404 128.644 57.46 129.124 57.572C129.609 57.684 130.014 57.8173 130.34 57.972C130.345 58.164 130.305 58.3747 130.22 58.604C130.134 58.828 130.02 59.004 129.876 59.132C129.604 59.004 129.281 58.8867 128.908 58.78C128.534 58.668 128.148 58.612 127.748 58.612C127.39 58.612 127.1 58.7027 126.876 58.884C126.652 59.06 126.539 59.2947 126.539 59.588C126.539 59.8173 126.625 60.0093 126.796 60.164C126.972 60.3187 127.23 60.46 127.572 60.588L128.556 60.956C129.153 61.1747 129.638 61.476 130.012 61.86C130.39 62.2387 130.58 62.7347 130.58 63.348C130.58 64.084 130.294 64.6627 129.724 65.084C129.153 65.5 128.404 65.708 127.476 65.708C126.916 65.708 126.398 65.628 125.924 65.468C125.454 65.308 125.046 65.1213 124.7 64.908ZM132.748 56.164C132.748 55.812 132.804 55.556 132.916 55.396C133.033 55.236 133.257 55.156 133.588 55.156H134.172L134.276 55.26V63.636C134.276 63.844 134.324 64.012 134.42 64.14C134.521 64.2627 134.689 64.324 134.924 64.324H136.052C136.137 64.5587 136.18 64.8227 136.18 65.116C136.18 65.1747 136.177 65.2333 136.172 65.292C136.172 65.3507 136.164 65.404 136.148 65.452C135.887 65.4893 135.607 65.5187 135.308 65.54C135.015 65.5613 134.711 65.572 134.396 65.572C133.868 65.572 133.46 65.4387 133.172 65.172C132.889 64.9053 132.748 64.508 132.748 63.98V56.164ZM136.26 57.596C136.308 57.7987 136.332 57.9907 136.332 58.172C136.332 58.3747 136.308 58.5693 136.26 58.756L133.684 58.724L131.58 58.756C131.537 58.5693 131.516 58.3747 131.516 58.172C131.516 57.9907 131.537 57.7987 131.58 57.596L133.692 57.636L136.26 57.596ZM142.486 57.588C142.486 57.8013 142.457 58.0493 142.398 58.332C142.34 58.6093 142.244 58.852 142.11 59.06C142.009 59.0387 141.905 59.0253 141.798 59.02C141.692 59.0093 141.585 59.0013 141.478 58.996C141.164 58.996 140.889 59.0627 140.654 59.196C140.425 59.324 140.23 59.492 140.07 59.7C139.91 59.908 139.774 60.132 139.662 60.372C139.556 60.612 139.468 60.844 139.398 61.068L139.166 60.772C139.177 60.404 139.228 60.028 139.318 59.644C139.409 59.26 139.55 58.9053 139.742 58.58C139.94 58.2547 140.193 57.9933 140.502 57.796C140.817 57.5987 141.204 57.5 141.662 57.5C141.796 57.5 141.929 57.508 142.062 57.524C142.196 57.5347 142.337 57.556 142.486 57.588ZM137.566 58.332C137.604 58.188 137.678 58.0333 137.79 57.868C137.908 57.7027 138.028 57.5773 138.15 57.492C138.662 57.6147 139.041 57.884 139.286 58.3C139.537 58.7107 139.681 59.2253 139.718 59.844V65.5C139.5 65.5427 139.241 65.564 138.942 65.564C138.638 65.564 138.377 65.5427 138.158 65.5V59.98C138.158 59.5587 138.094 59.212 137.966 58.94C137.844 58.6627 137.71 58.46 137.566 58.332ZM143.189 63.356C143.189 62.748 143.322 62.2493 143.589 61.86C143.855 61.4707 144.218 61.1853 144.677 61.004C145.135 60.8173 145.655 60.724 146.237 60.724C146.541 60.724 146.882 60.7373 147.261 60.764C147.645 60.7907 147.997 60.844 148.317 60.924V61.98C148.029 61.9107 147.703 61.8653 147.341 61.844C146.978 61.8227 146.639 61.812 146.325 61.812C145.823 61.812 145.434 61.94 145.157 62.196C144.885 62.4467 144.749 62.796 144.749 63.244C144.749 63.5853 144.842 63.8733 145.029 64.108C145.221 64.3427 145.498 64.46 145.861 64.46C146.255 64.46 146.674 64.3213 147.117 64.044C147.565 63.7667 147.938 63.3587 148.237 62.82L148.485 64.052C148.293 64.276 148.055 64.516 147.773 64.772C147.49 65.028 147.162 65.2493 146.789 65.436C146.415 65.6173 145.997 65.708 145.533 65.708C145.005 65.708 144.567 65.5907 144.221 65.356C143.874 65.1213 143.615 64.8253 143.445 64.468C143.274 64.1053 143.189 63.7347 143.189 63.356ZM149.805 64.812C149.762 64.9507 149.682 65.1 149.565 65.26C149.453 65.42 149.33 65.54 149.197 65.62C148.871 65.5453 148.61 65.4173 148.413 65.236C148.221 65.0547 148.077 64.8413 147.981 64.596C147.885 64.3453 147.829 64.0787 147.813 63.796V60.172C147.813 59.6493 147.695 59.276 147.461 59.052C147.226 58.828 146.901 58.716 146.485 58.716C146.074 58.716 145.653 58.7773 145.221 58.9C144.794 59.0227 144.37 59.1693 143.949 59.34C143.821 59.212 143.711 59.0387 143.621 58.82C143.535 58.596 143.487 58.3827 143.477 58.18C143.77 58.052 144.101 57.932 144.469 57.82C144.842 57.708 145.226 57.6173 145.621 57.548C146.021 57.4787 146.402 57.444 146.765 57.444C147.293 57.444 147.751 57.5427 148.141 57.74C148.53 57.932 148.829 58.2253 149.037 58.62C149.25 59.0147 149.357 59.516 149.357 60.124V63.404C149.357 63.7133 149.383 63.9827 149.437 64.212C149.495 64.4413 149.618 64.6413 149.805 64.812ZM157.676 63.26C157.676 63.5693 157.705 63.8653 157.764 64.148C157.828 64.4307 157.948 64.652 158.124 64.812C158.081 64.9507 158.001 65.1 157.884 65.26C157.772 65.42 157.649 65.54 157.516 65.62C157.014 65.508 156.66 65.2573 156.452 64.868C156.249 64.4787 156.148 64.036 156.148 63.54V53.836L156.244 53.732H156.836C157.166 53.732 157.388 53.8147 157.5 53.98C157.617 54.14 157.676 54.396 157.676 54.748V63.26ZM151.244 61.652C151.244 60.6973 151.393 59.9107 151.692 59.292C151.99 58.6733 152.374 58.2173 152.844 57.924C153.313 57.6253 153.796 57.476 154.292 57.476C154.798 57.476 155.265 57.58 155.692 57.788C156.118 57.996 156.518 58.2387 156.892 58.516L156.732 59.772C156.428 59.532 156.084 59.3 155.7 59.076C155.316 58.852 154.916 58.74 154.5 58.74C154.201 58.74 153.924 58.844 153.668 59.052C153.412 59.26 153.209 59.58 153.06 60.012C152.91 60.444 152.836 60.9933 152.836 61.66C152.836 62.3053 152.905 62.8307 153.044 63.236C153.182 63.636 153.366 63.9293 153.596 64.116C153.825 64.3027 154.07 64.396 154.332 64.396C154.609 64.396 154.897 64.3213 155.196 64.172C155.5 64.0227 155.78 63.796 156.036 63.492C156.292 63.1827 156.486 62.7933 156.62 62.324L156.932 63.524C156.83 63.8813 156.641 64.228 156.364 64.564C156.086 64.8947 155.745 65.1693 155.34 65.388C154.934 65.6013 154.481 65.708 153.98 65.708C153.377 65.708 152.873 65.5373 152.468 65.196C152.062 64.8493 151.756 64.372 151.548 63.764C151.345 63.156 151.244 62.452 151.244 61.652ZM166.576 61.556C166.576 62.3667 166.446 63.084 166.184 63.708C165.928 64.332 165.544 64.8227 165.032 65.18C164.526 65.532 163.894 65.708 163.136 65.708C162.379 65.708 161.747 65.5293 161.24 65.172C160.734 64.8147 160.352 64.324 160.096 63.7C159.84 63.0707 159.712 62.356 159.712 61.556C159.712 60.7453 159.84 60.028 160.096 59.404C160.358 58.78 160.742 58.292 161.248 57.94C161.76 57.5827 162.39 57.404 163.136 57.404C163.899 57.404 164.534 57.5827 165.04 57.94C165.552 58.2973 165.936 58.788 166.192 59.412C166.448 60.036 166.576 60.7507 166.576 61.556ZM161.328 61.556C161.328 62.0573 161.382 62.5347 161.488 62.988C161.595 63.436 161.779 63.8013 162.04 64.084C162.307 64.3613 162.678 64.5 163.152 64.5C163.622 64.5 163.987 64.3613 164.248 64.084C164.51 63.8013 164.694 63.436 164.8 62.988C164.907 62.5347 164.96 62.0573 164.96 61.556C164.96 61.0547 164.907 60.58 164.8 60.132C164.694 59.6787 164.51 59.3107 164.248 59.028C163.987 58.74 163.622 58.596 163.152 58.596C162.678 58.596 162.307 58.74 162.04 59.028C161.779 59.3107 161.595 59.6787 161.488 60.132C161.382 60.58 161.328 61.0547 161.328 61.556ZM173.049 57.588C173.049 57.8013 173.02 58.0493 172.961 58.332C172.902 58.6093 172.806 58.852 172.673 59.06C172.572 59.0387 172.468 59.0253 172.361 59.02C172.254 59.0093 172.148 59.0013 172.041 58.996C171.726 58.996 171.452 59.0627 171.217 59.196C170.988 59.324 170.793 59.492 170.633 59.7C170.473 59.908 170.337 60.132 170.225 60.372C170.118 60.612 170.03 60.844 169.961 61.068L169.729 60.772C169.74 60.404 169.79 60.028 169.881 59.644C169.972 59.26 170.113 58.9053 170.305 58.58C170.502 58.2547 170.756 57.9933 171.065 57.796C171.38 57.5987 171.766 57.5 172.225 57.5C172.358 57.5 172.492 57.508 172.625 57.524C172.758 57.5347 172.9 57.556 173.049 57.588ZM168.129 58.332C168.166 58.188 168.241 58.0333 168.353 57.868C168.47 57.7027 168.59 57.5773 168.713 57.492C169.225 57.6147 169.604 57.884 169.849 58.3C170.1 58.7107 170.244 59.2253 170.281 59.844V65.5C170.062 65.5427 169.804 65.564 169.505 65.564C169.201 65.564 168.94 65.5427 168.721 65.5V59.98C168.721 59.5587 168.657 59.212 168.529 58.94C168.406 58.6627 168.273 58.46 168.129 58.332Z" fill="white"/>
</svg>
