<svg width="174" height="71" viewBox="0 0 174 71" fill="none" xmlns="http://www.w3.org/2000/svg">
<path d="M69.509 9.49805C70.5993 10.401 71.1517 11.7219 71.1517 13.4317V21.8274H81.944V8.1628H82.2658C84.2879 8.1628 85.8584 8.6143 86.9295 9.49805C88.0006 10.3818 88.5769 11.7219 88.5769 13.4317V42.2977H88.2503C86.2283 42.2977 84.6577 41.8511 83.5866 40.9673C82.5155 40.0836 81.944 38.7435 81.944 37.0337V28.3883H71.1517V42.2833H70.8299C68.8078 42.2833 67.2372 41.8366 66.1613 40.9529C65.0855 40.0691 64.5187 38.7291 64.5187 37.0193V8.14844H64.8549C66.8674 8.16285 68.4332 8.6143 69.509 9.49805Z" fill="#FEB45C"/>
<path d="M147.779 28.9742C147.576 28.4189 147.314 27.8874 146.996 27.3892C146.252 26.2064 145.183 25.2626 143.917 24.6707C144.845 23.9565 145.601 23.0442 146.131 22.0003C146.759 20.8285 147.088 19.5206 147.092 18.1914C147.092 15.3096 146.246 12.937 144.58 11.2031C144.076 10.6779 143.504 10.2223 142.88 9.84864C142.335 9.52382 141.755 9.26274 141.15 9.07056C140.082 8.73926 138.969 8.5772 137.851 8.59026H130.032C128.671 8.53679 127.318 8.82579 126.098 9.43078L125.92 9.53169C125.726 9.64799 125.541 9.77967 125.368 9.92551C124.273 10.8237 123.72 12.1493 123.72 13.8592V36.6158C123.72 38.3257 124.273 39.6513 125.368 40.5494C126.195 41.1924 127.178 41.605 128.216 41.7454C128.816 41.8408 129.424 41.8874 130.032 41.8847H138.619C139.47 41.8887 140.318 41.792 141.146 41.5965C141.854 41.4275 142.539 41.1743 143.187 40.8424C143.336 40.7704 143.485 40.6887 143.629 40.6023C145.083 39.7558 146.269 38.5154 147.049 37.024C147.349 36.4604 147.594 35.8683 147.779 35.2565C148.107 34.1384 148.269 32.9781 148.259 31.8128C148.266 30.8458 148.103 29.8852 147.779 28.9742ZM130.176 15.0167H134.234C135.834 15.0167 138.077 14.6276 139.402 15.6699C140.243 16.3183 140.435 17.4662 140.435 18.4701C140.435 20.5786 139.061 22.0627 136.933 22.0627H130.176V15.0167ZM141.074 33.9453C140.781 34.3934 140.384 34.7632 139.916 35.0227C139.448 35.2822 138.924 35.4234 138.389 35.4342C135.67 35.5687 132.913 35.4342 130.195 35.4342V28.3883C132.88 28.3883 135.565 28.3883 138.249 28.3883C140.305 28.3883 141.612 29.8772 141.612 31.8896C141.629 32.6118 141.443 33.3243 141.074 33.9453Z" fill="#FEB45C"/>
<path d="M173.998 35.3864V35.713C174.015 36.6799 173.93 37.6458 173.743 38.5948C173.622 39.2256 173.388 39.8292 173.052 40.3767C172.785 40.8003 172.423 41.1556 171.995 41.4141C171.577 41.6646 171.113 41.8279 170.631 41.8944H157.663C157.055 41.8972 156.448 41.8506 155.847 41.7551C154.81 41.6142 153.828 41.2035 152.999 40.564C151.904 39.661 151.352 38.3354 151.352 36.6255V13.8689C151.352 12.159 151.904 10.8334 152.999 9.93527C153.173 9.78944 153.357 9.6577 153.552 9.54139L153.729 9.44055C154.949 8.83556 156.302 8.54655 157.663 8.60002H173.21V8.92665C173.21 11.0592 172.903 12.5817 172.25 13.5759C171.596 14.5701 170.525 15.1273 169.084 15.1273H157.98V21.8515H168.647V22.2741C168.647 24.3586 168.33 25.8524 167.687 26.8322C167.366 27.3427 166.906 27.751 166.361 28.009C165.783 28.267 165.155 28.3933 164.522 28.3788H157.98V35.3767H169.949C170.196 35.3767 170.444 35.3944 170.689 35.4296L173.998 35.3864Z" fill="#FEB45C"/>
<path d="M120.656 25.2369C120.653 25.2081 120.653 25.1792 120.656 25.1504C120.822 21.1859 119.742 17.269 117.567 13.9499C116.317 12.1455 114.623 10.6933 112.649 9.73282C110.64 8.71308 108.418 8.18164 106.165 8.18164C103.912 8.18164 101.69 8.71308 99.6811 9.73282C97.7079 10.6946 96.0145 12.1466 94.7628 13.9499C92.5897 17.2694 91.5113 21.1864 91.6793 25.1504V25.333C91.5113 29.297 92.5897 33.2141 94.7628 36.5336C96.0145 38.3369 97.7079 39.7889 99.6811 40.7506C101.69 41.7704 103.912 42.3018 106.165 42.3018C108.418 42.3018 110.64 41.7704 112.649 40.7506C114.623 39.7901 116.317 38.3379 117.567 36.5336C119.742 33.2145 120.822 29.2975 120.656 25.333C120.653 25.301 120.653 25.2689 120.656 25.2369ZM109.446 34.2618C108.468 34.8877 107.331 35.2204 106.17 35.2204C105.009 35.2204 103.872 34.8877 102.894 34.2618C100.152 32.6624 99.6715 28.599 99.6859 25.6932V24.771C99.6859 21.8652 100.166 17.8019 102.894 16.2025C103.888 15.6199 105.018 15.3127 106.17 15.3127C107.322 15.3127 108.452 15.6199 109.446 16.2025C112.188 17.8019 112.668 21.8652 112.659 24.771C112.659 24.9199 112.659 25.0688 112.659 25.2273C112.659 25.3858 112.659 25.5347 112.659 25.7076C112.668 28.599 112.188 32.6624 109.446 34.2618Z" fill="#FEB45C"/>
<path d="M51.8865 22.4178C51.6894 20.2812 51.2048 18.1809 50.4456 16.1739C48.6054 11.4484 45.332 7.41744 41.0845 4.64674C36.026 1.38495 30.081 -0.229228 24.0675 0.0262543C19.5394 0.206119 15.119 1.46061 11.1715 3.68614C7.3624 5.80115 4.24397 8.9696 2.18985 12.8118C0.11936 16.9502 -0.506246 21.6625 0.412742 26.1978C0.945747 29.1233 2.16552 31.8806 3.97176 34.2428C6.93521 38.1573 11.6566 40.8997 16.4932 42.0813C16.6697 42.5677 16.8204 43.0631 16.9447 43.5654C17.5185 45.0496 18.4141 46.388 19.5671 47.4846C22.9292 50.7315 27.2231 50.938 31.5746 50.0495C44.8069 47.7873 53.4474 35.6453 51.8865 22.4178ZM24.1059 25.5254C24.1396 26.2266 24.178 26.923 24.178 27.4466C24.0579 32.4945 29.687 35.0785 33.784 32.6915C39.0673 29.5455 36.5985 21.1642 30.4219 21.193H28.3518C28.4526 19.1854 28.8321 17.293 29.956 16.5438C31.1227 15.6854 32.5618 15.2808 34.0049 15.4055C34.807 15.4763 35.5822 15.7294 36.2715 16.1456C36.9607 16.5618 37.5457 17.1301 37.9818 17.807C41.2046 23.0326 40.2728 30.3956 35.9117 34.3677C32.7786 36.8132 28.9605 38.2202 24.9897 38.3926C24.7784 38.3926 24.5574 38.4358 24.3413 38.4406C23.083 38.5274 21.8195 38.5001 20.5661 38.359V25.5157L24.1059 25.5254ZM28.4286 25.5254H30.4075C30.917 25.5254 31.4057 25.7278 31.766 26.0881C32.1263 26.4484 32.3287 26.937 32.3287 27.4466C32.3653 27.742 32.3148 28.0416 32.1834 28.3087C32.052 28.5758 31.8454 28.7986 31.589 28.9499C30.6284 29.507 28.9522 29.3101 28.5871 28.119C28.5119 27.7656 28.4845 27.4038 28.5055 27.0431C28.4863 26.5916 28.4671 25.9144 28.4382 25.5109L28.4286 25.5254ZM42.7608 39.0747C39.7331 42.5599 35.6016 44.9011 31.0559 45.7076C28.6063 46.1879 26.0127 46.5577 23.7649 45.2273C22.7505 44.6608 21.9178 43.818 21.3634 42.797C27.6409 43.0323 33.9473 41.5578 38.5966 37.7058C43.827 33.2726 45.6426 24.6993 43.049 18.2873H43.0826C41.5888 14.2479 38.5485 11.419 34.3651 11.0347C32.9158 10.9084 31.4562 11.0971 30.0866 11.5879C28.717 12.0787 27.4698 12.8599 26.4306 13.8781C24.6199 15.8281 24.1299 18.6043 24.0291 21.1739H20.5709V18.8924C20.4605 14.0894 14.8842 11.6879 10.9649 14.0126C5.7873 17.0721 8.02069 25.2468 13.9908 25.5014H16.229V37.4368C10.8929 35.7558 5.91217 31.947 4.70182 25.3621C4.25225 23.241 4.23317 21.0512 4.64569 18.9226C5.05821 16.794 5.89393 14.7699 7.10332 12.9703C9.45679 9.60821 13.0254 7.20672 16.8534 5.83306C20.7749 4.38788 24.9997 3.96477 29.1299 4.60353C34.4564 5.47287 39.5332 7.96562 43.0586 12.101C45.5062 14.9578 47.0463 18.4795 47.4821 22.2161C48.2842 28.2102 46.7857 34.459 42.7608 39.0747ZM14.2934 21.1739C13.7839 21.1739 13.2952 20.9714 12.9349 20.6111C12.5746 20.2508 12.3722 19.7622 12.3722 19.2527C12.3402 18.9617 12.393 18.6677 12.5242 18.4061C12.6555 18.1445 12.8595 17.9264 13.1119 17.7781C14.303 17.1009 16.3011 17.5764 16.1906 19.2527V21.1739H14.2934Z" fill="#FEB45C"/>
<path d="M126.464 58.046C126.464 58.8246 126.309 59.478 126 60.006C125.691 60.5286 125.261 60.926 124.712 61.198C124.163 61.4646 123.533 61.598 122.824 61.598H120.408V60.334C120.589 60.3286 120.837 60.3233 121.152 60.318C121.472 60.3126 121.784 60.31 122.088 60.31C122.397 60.3046 122.629 60.302 122.784 60.302C123.328 60.302 123.741 60.182 124.024 59.942C124.312 59.702 124.509 59.4086 124.616 59.062C124.728 58.71 124.784 58.3713 124.784 58.046C124.784 57.7153 124.728 57.3793 124.616 57.038C124.509 56.6913 124.312 56.4006 124.024 56.166C123.741 55.9313 123.328 55.814 122.784 55.814C122.549 55.814 122.275 55.814 121.96 55.814C121.651 55.8086 121.36 55.8033 121.088 55.798V65.502C120.965 65.5233 120.829 65.5393 120.68 65.55C120.536 65.5606 120.4 65.566 120.272 65.566C120.155 65.566 120.021 65.5606 119.872 65.55C119.728 65.5393 119.595 65.5233 119.472 65.502V54.662L119.576 54.566C120.173 54.5553 120.731 54.5446 121.248 54.534C121.765 54.518 122.291 54.51 122.824 54.51C123.528 54.51 124.155 54.6406 124.704 54.902C125.253 55.1633 125.683 55.5553 125.992 56.078C126.307 56.6006 126.464 57.2566 126.464 58.046ZM127.408 63.358C127.408 62.75 127.541 62.2513 127.808 61.862C128.074 61.4726 128.437 61.1873 128.896 61.006C129.354 60.8193 129.874 60.726 130.456 60.726C130.76 60.726 131.101 60.7393 131.48 60.766C131.864 60.7926 132.216 60.846 132.536 60.926V61.982C132.248 61.9126 131.922 61.8673 131.56 61.846C131.197 61.8246 130.858 61.814 130.544 61.814C130.042 61.814 129.653 61.942 129.376 62.198C129.104 62.4486 128.968 62.798 128.968 63.246C128.968 63.5873 129.061 63.8753 129.248 64.11C129.44 64.3446 129.717 64.462 130.08 64.462C130.474 64.462 130.893 64.3233 131.336 64.046C131.784 63.7686 132.157 63.3606 132.456 62.822L132.704 64.054C132.512 64.278 132.274 64.518 131.992 64.774C131.709 65.03 131.381 65.2513 131.008 65.438C130.634 65.6193 130.216 65.71 129.752 65.71C129.224 65.71 128.786 65.5926 128.44 65.358C128.093 65.1233 127.834 64.8273 127.664 64.47C127.493 64.1073 127.408 63.7366 127.408 63.358ZM134.024 64.814C133.981 64.9526 133.901 65.102 133.784 65.262C133.672 65.422 133.549 65.542 133.416 65.622C133.09 65.5473 132.829 65.4193 132.632 65.238C132.44 65.0566 132.296 64.8433 132.2 64.598C132.104 64.3473 132.048 64.0806 132.032 63.798V60.174C132.032 59.6513 131.914 59.278 131.68 59.054C131.445 58.83 131.12 58.718 130.704 58.718C130.293 58.718 129.872 58.7793 129.44 58.902C129.013 59.0246 128.589 59.1713 128.168 59.342C128.04 59.214 127.93 59.0406 127.84 58.822C127.754 58.598 127.706 58.3846 127.696 58.182C127.989 58.054 128.32 57.934 128.688 57.822C129.061 57.71 129.445 57.6193 129.84 57.55C130.24 57.4806 130.621 57.446 130.984 57.446C131.512 57.446 131.97 57.5446 132.36 57.742C132.749 57.934 133.048 58.2273 133.256 58.622C133.469 59.0166 133.576 59.518 133.576 60.126V63.406C133.576 63.7153 133.602 63.9846 133.656 64.214C133.714 64.4433 133.837 64.6433 134.024 64.814ZM140.549 57.59C140.549 57.8033 140.52 58.0513 140.461 58.334C140.402 58.6113 140.306 58.854 140.173 59.062C140.072 59.0406 139.968 59.0273 139.861 59.022C139.754 59.0113 139.648 59.0033 139.541 58.998C139.226 58.998 138.952 59.0646 138.717 59.198C138.488 59.326 138.293 59.494 138.133 59.702C137.973 59.91 137.837 60.134 137.725 60.374C137.618 60.614 137.53 60.846 137.461 61.07L137.229 60.774C137.24 60.406 137.29 60.03 137.381 59.646C137.472 59.262 137.613 58.9073 137.805 58.582C138.002 58.2566 138.256 57.9953 138.565 57.798C138.88 57.6006 139.266 57.502 139.725 57.502C139.858 57.502 139.992 57.51 140.125 57.526C140.258 57.5366 140.4 57.558 140.549 57.59ZM135.629 58.334C135.666 58.19 135.741 58.0353 135.853 57.87C135.97 57.7046 136.09 57.5793 136.213 57.494C136.725 57.6166 137.104 57.886 137.349 58.302C137.6 58.7126 137.744 59.2273 137.781 59.846V65.502C137.562 65.5446 137.304 65.566 137.005 65.566C136.701 65.566 136.44 65.5446 136.221 65.502V59.982C136.221 59.5606 136.157 59.214 136.029 58.942C135.906 58.6646 135.773 58.462 135.629 58.334ZM145.785 60.614C145.801 60.2726 145.769 59.95 145.689 59.646C145.614 59.342 145.467 59.094 145.249 58.902C145.035 58.71 144.729 58.614 144.329 58.614C143.811 58.614 143.403 58.8646 143.105 59.366C142.806 59.8673 142.657 60.614 142.657 61.606C142.657 62.5766 142.819 63.2886 143.145 63.742C143.475 64.19 143.931 64.414 144.513 64.414C144.886 64.414 145.235 64.3286 145.561 64.158C145.891 63.9873 146.198 63.798 146.481 63.59C146.619 63.6753 146.755 63.8113 146.889 63.998C147.022 64.1793 147.11 64.358 147.153 64.534C146.79 64.886 146.363 65.1713 145.873 65.39C145.382 65.6033 144.851 65.71 144.281 65.71C143.71 65.71 143.219 65.6006 142.809 65.382C142.398 65.158 142.062 64.8566 141.801 64.478C141.539 64.094 141.347 63.6566 141.225 63.166C141.102 62.67 141.041 62.15 141.041 61.606C141.041 60.6246 141.201 59.8246 141.521 59.206C141.841 58.5873 142.254 58.134 142.761 57.846C143.273 57.5526 143.809 57.406 144.369 57.406C144.859 57.406 145.283 57.4806 145.641 57.63C146.003 57.7793 146.302 57.9713 146.537 58.206C146.777 58.4406 146.953 58.6993 147.065 58.982C147.182 59.2593 147.241 59.5313 147.241 59.798C147.241 60.0593 147.179 60.2726 147.057 60.438C146.934 60.598 146.729 60.678 146.441 60.678C146.318 60.678 146.206 60.6726 146.105 60.662C146.003 60.6513 145.897 60.6353 145.785 60.614ZM149.454 62.046V60.902H153.438V60.694C153.438 60.31 153.382 59.958 153.27 59.638C153.163 59.3126 152.987 59.054 152.742 58.862C152.502 58.67 152.185 58.574 151.79 58.574C151.225 58.574 150.801 58.8113 150.518 59.286C150.235 59.7553 150.094 60.398 150.094 61.214V61.694C150.094 62.2113 150.147 62.678 150.254 63.094C150.366 63.5046 150.558 63.83 150.83 64.07C151.102 64.3046 151.486 64.422 151.982 64.422C152.393 64.422 152.785 64.3633 153.158 64.246C153.531 64.1233 153.889 63.974 154.23 63.798C154.363 63.9206 154.473 64.0806 154.558 64.278C154.649 64.47 154.705 64.646 154.726 64.806C154.347 65.078 153.894 65.2966 153.366 65.462C152.843 65.6273 152.305 65.71 151.75 65.71C151.126 65.71 150.603 65.598 150.182 65.374C149.761 65.1446 149.425 64.838 149.174 64.454C148.923 64.0646 148.745 63.622 148.638 63.126C148.531 62.63 148.478 62.11 148.478 61.566C148.478 60.7713 148.601 60.062 148.846 59.438C149.097 58.8086 149.467 58.3126 149.958 57.95C150.449 57.5873 151.059 57.406 151.79 57.406C152.478 57.406 153.057 57.5606 153.526 57.87C153.995 58.174 154.35 58.5846 154.59 59.102C154.83 59.614 154.95 60.1873 154.95 60.822C154.95 61.0673 154.942 61.2806 154.926 61.462C154.91 61.638 154.881 61.8326 154.838 62.046H149.454ZM158.806 65.502C158.587 65.5446 158.328 65.566 158.03 65.566C157.731 65.566 157.47 65.5446 157.246 65.502V59.582C157.246 59.294 157.195 59.086 157.094 58.958C156.998 58.8246 156.819 58.758 156.558 58.758H156.382C156.339 58.5766 156.318 58.3926 156.318 58.206C156.318 58.11 156.323 58.0166 156.334 57.926C156.344 57.83 156.36 57.7313 156.382 57.63C156.579 57.6033 156.763 57.5846 156.934 57.574C157.104 57.5633 157.246 57.558 157.358 57.558H157.558C157.947 57.558 158.251 57.6806 158.47 57.926C158.694 58.1713 158.806 58.5046 158.806 58.926V65.502ZM156.75 55.486C156.75 55.2246 156.798 54.9953 156.894 54.798C156.99 54.7446 157.118 54.6993 157.278 54.662C157.438 54.6246 157.592 54.606 157.742 54.606C157.88 54.606 158.035 54.6246 158.206 54.662C158.382 54.6993 158.51 54.7446 158.59 54.798C158.632 54.8886 158.667 55.0006 158.694 55.134C158.72 55.262 158.734 55.3793 158.734 55.486C158.734 55.7526 158.686 55.9846 158.59 56.182C158.515 56.2353 158.39 56.2806 158.214 56.318C158.038 56.3553 157.88 56.374 157.742 56.374C157.592 56.374 157.435 56.3553 157.27 56.318C157.11 56.2806 156.984 56.2353 156.894 56.182C156.798 55.9846 156.75 55.7526 156.75 55.486ZM165.815 57.59C165.815 57.8033 165.785 58.0513 165.727 58.334C165.668 58.6113 165.572 58.854 165.439 59.062C165.337 59.0406 165.233 59.0273 165.127 59.022C165.02 59.0113 164.913 59.0033 164.807 58.998C164.492 58.998 164.217 59.0646 163.983 59.198C163.753 59.326 163.559 59.494 163.399 59.702C163.239 59.91 163.103 60.134 162.991 60.374C162.884 60.614 162.796 60.846 162.727 61.07L162.495 60.774C162.505 60.406 162.556 60.03 162.647 59.646C162.737 59.262 162.879 58.9073 163.071 58.582C163.268 58.2566 163.521 57.9953 163.831 57.798C164.145 57.6006 164.532 57.502 164.991 57.502C165.124 57.502 165.257 57.51 165.391 57.526C165.524 57.5366 165.665 57.558 165.815 57.59ZM160.895 58.334C160.932 58.19 161.007 58.0353 161.118 57.87C161.236 57.7046 161.356 57.5793 161.479 57.494C161.991 57.6166 162.369 57.886 162.615 58.302C162.865 58.7126 163.009 59.2273 163.047 59.846V65.502C162.828 65.5446 162.569 65.566 162.271 65.566C161.967 65.566 161.705 65.5446 161.487 65.502V59.982C161.487 59.5606 161.423 59.214 161.295 58.942C161.172 58.6646 161.039 58.462 160.895 58.334ZM173.17 61.558C173.17 62.3686 173.039 63.086 172.778 63.71C172.522 64.334 172.138 64.8246 171.626 65.182C171.119 65.534 170.487 65.71 169.73 65.71C168.973 65.71 168.341 65.5313 167.834 65.174C167.327 64.8166 166.946 64.326 166.69 63.702C166.434 63.0726 166.306 62.358 166.306 61.558C166.306 60.7473 166.434 60.03 166.69 59.406C166.951 58.782 167.335 58.294 167.842 57.942C168.354 57.5846 168.983 57.406 169.73 57.406C170.493 57.406 171.127 57.5846 171.634 57.942C172.146 58.2993 172.53 58.79 172.786 59.414C173.042 60.038 173.17 60.7526 173.17 61.558ZM167.922 61.558C167.922 62.0593 167.975 62.5366 168.082 62.99C168.189 63.438 168.373 63.8033 168.634 64.086C168.901 64.3633 169.271 64.502 169.746 64.502C170.215 64.502 170.581 64.3633 170.842 64.086C171.103 63.8033 171.287 63.438 171.394 62.99C171.501 62.5366 171.554 62.0593 171.554 61.558C171.554 61.0566 171.501 60.582 171.394 60.134C171.287 59.6806 171.103 59.3126 170.842 59.03C170.581 58.742 170.215 58.598 169.746 58.598C169.271 58.598 168.901 58.742 168.634 59.03C168.373 59.3126 168.189 59.6806 168.082 60.134C167.975 60.582 167.922 61.0566 167.922 61.558Z" fill="white"/>
</svg>
