<svg width="174" height="71" viewBox="0 0 174 71" fill="none" xmlns="http://www.w3.org/2000/svg">
<path d="M69.5089 9.49805C70.5992 10.401 71.1515 11.7219 71.1515 13.4317V21.8274H81.9438V8.1628H82.2656C84.2877 8.1628 85.8583 8.6143 86.9293 9.49805C88.0004 10.3818 88.5768 11.7219 88.5768 13.4317V42.2977H88.2502C86.2281 42.2977 84.6575 41.8511 83.5865 40.9673C82.5154 40.0836 81.9438 38.7435 81.9438 37.0337V28.3883H71.1515V42.2833H70.8297C68.8076 42.2833 67.2371 41.8366 66.1612 40.9529C65.0853 40.0691 64.5186 38.7291 64.5186 37.0193V8.14844H64.8548C66.8672 8.16285 68.433 8.6143 69.5089 9.49805Z" fill="#FEB45C"/>
<path d="M147.778 28.9742C147.576 28.4189 147.314 27.8874 146.996 27.3892C146.251 26.2064 145.183 25.2626 143.917 24.6707C144.844 23.9565 145.601 23.0442 146.131 22.0003C146.758 20.8285 147.088 19.5206 147.092 18.1914C147.092 15.3096 146.246 12.937 144.58 11.2031C144.076 10.6779 143.504 10.2223 142.879 9.84864C142.335 9.52382 141.755 9.26274 141.15 9.07056C140.082 8.73926 138.969 8.5772 137.851 8.59026H130.031C128.67 8.53679 127.318 8.82579 126.098 9.43078L125.92 9.53169C125.726 9.64799 125.541 9.77967 125.368 9.92551C124.273 10.8237 123.72 12.1493 123.72 13.8592V36.6158C123.72 38.3257 124.273 39.6513 125.368 40.5494C126.195 41.1924 127.178 41.605 128.216 41.7454C128.816 41.8408 129.423 41.8874 130.031 41.8847H138.619C139.47 41.8887 140.318 41.792 141.145 41.5965C141.854 41.4275 142.539 41.1743 143.187 40.8424C143.336 40.7704 143.485 40.6887 143.629 40.6023C145.083 39.7558 146.269 38.5154 147.048 37.024C147.349 36.4604 147.594 35.8683 147.778 35.2565C148.107 34.1384 148.269 32.9781 148.259 31.8128C148.265 30.8458 148.103 29.8852 147.778 28.9742ZM130.175 15.0167H134.234C135.833 15.0167 138.076 14.6276 139.402 15.6699C140.243 16.3183 140.435 17.4662 140.435 18.4701C140.435 20.5786 139.061 22.0627 136.933 22.0627H130.175V15.0167ZM141.073 33.9453C140.781 34.3934 140.384 34.7632 139.916 35.0227C139.448 35.2822 138.924 35.4234 138.389 35.4342C135.67 35.5687 132.913 35.4342 130.195 35.4342V28.3883C132.88 28.3883 135.564 28.3883 138.249 28.3883C140.305 28.3883 141.611 29.8772 141.611 31.8896C141.629 32.6118 141.442 33.3243 141.073 33.9453Z" fill="#FEB45C"/>
<path d="M173.998 35.3864V35.713C174.015 36.6799 173.929 37.6458 173.743 38.5948C173.622 39.2256 173.388 39.8292 173.052 40.3767C172.785 40.8003 172.423 41.1556 171.995 41.4141C171.577 41.6646 171.113 41.8279 170.631 41.8944H157.663C157.055 41.8972 156.448 41.8506 155.847 41.7551C154.81 41.6142 153.828 41.2035 152.999 40.564C151.904 39.661 151.352 38.3354 151.352 36.6255V13.8689C151.352 12.159 151.904 10.8334 152.999 9.93527C153.172 9.78944 153.357 9.6577 153.551 9.54139L153.729 9.44055C154.949 8.83556 156.302 8.54655 157.663 8.60002H173.21V8.92665C173.21 11.0592 172.903 12.5817 172.249 13.5759C171.596 14.5701 170.525 15.1273 169.084 15.1273H157.98V21.8515H168.647V22.2741C168.647 24.3586 168.33 25.8524 167.687 26.8322C167.366 27.3427 166.906 27.751 166.361 28.009C165.783 28.267 165.154 28.3933 164.521 28.3788H157.98V35.3767H169.949C170.196 35.3767 170.443 35.3944 170.688 35.4296L173.998 35.3864Z" fill="#FEB45C"/>
<path d="M120.656 25.2369C120.653 25.2081 120.653 25.1792 120.656 25.1504C120.822 21.1859 119.742 17.269 117.567 13.9499C116.317 12.1455 114.623 10.6933 112.649 9.73282C110.64 8.71308 108.418 8.18164 106.165 8.18164C103.912 8.18164 101.69 8.71308 99.6809 9.73282C97.7077 10.6946 96.0143 12.1466 94.7627 13.9499C92.5895 17.2694 91.5111 21.1864 91.6791 25.1504V25.333C91.5111 29.297 92.5895 33.2141 94.7627 36.5336C96.0143 38.3369 97.7077 39.7889 99.6809 40.7506C101.69 41.7704 103.912 42.3018 106.165 42.3018C108.418 42.3018 110.64 41.7704 112.649 40.7506C114.623 39.7901 116.317 38.3379 117.567 36.5336C119.742 33.2145 120.822 29.2975 120.656 25.333C120.653 25.301 120.653 25.2689 120.656 25.2369ZM109.445 34.2618C108.468 34.8877 107.331 35.2204 106.17 35.2204C105.009 35.2204 103.872 34.8877 102.894 34.2618C100.152 32.6624 99.6713 28.599 99.6857 25.6932V24.771C99.6857 21.8652 100.166 17.8019 102.894 16.2025C103.887 15.6199 105.018 15.3127 106.17 15.3127C107.321 15.3127 108.452 15.6199 109.445 16.2025C112.188 17.8019 112.668 21.8652 112.659 24.771C112.659 24.9199 112.659 25.0688 112.659 25.2273C112.659 25.3858 112.659 25.5347 112.659 25.7076C112.668 28.599 112.188 32.6624 109.445 34.2618Z" fill="#FEB45C"/>
<path d="M51.8865 22.4178C51.6894 20.2812 51.2048 18.1809 50.4456 16.1739C48.6054 11.4484 45.332 7.41744 41.0845 4.64674C36.026 1.38495 30.081 -0.229228 24.0675 0.0262543C19.5394 0.206119 15.119 1.46061 11.1715 3.68614C7.3624 5.80115 4.24397 8.9696 2.18985 12.8118C0.11936 16.9502 -0.506246 21.6625 0.412742 26.1978C0.945747 29.1233 2.16552 31.8806 3.97176 34.2428C6.93521 38.1573 11.6566 40.8997 16.4932 42.0813C16.6697 42.5677 16.8204 43.0631 16.9447 43.5654C17.5185 45.0496 18.4141 46.388 19.5671 47.4846C22.9292 50.7315 27.2231 50.938 31.5746 50.0495C44.8069 47.7873 53.4474 35.6453 51.8865 22.4178ZM24.1059 25.5254C24.1396 26.2266 24.178 26.923 24.178 27.4466C24.0579 32.4945 29.687 35.0785 33.784 32.6915C39.0673 29.5455 36.5985 21.1642 30.4219 21.193H28.3518C28.4526 19.1854 28.8321 17.293 29.956 16.5438C31.1227 15.6854 32.5618 15.2808 34.0049 15.4055C34.807 15.4763 35.5822 15.7294 36.2715 16.1456C36.9607 16.5618 37.5457 17.1301 37.9818 17.807C41.2046 23.0326 40.2728 30.3956 35.9117 34.3677C32.7786 36.8132 28.9605 38.2202 24.9897 38.3926C24.7784 38.3926 24.5574 38.4358 24.3413 38.4406C23.083 38.5274 21.8195 38.5001 20.5661 38.359V25.5157L24.1059 25.5254ZM28.4286 25.5254H30.4075C30.917 25.5254 31.4057 25.7278 31.766 26.0881C32.1263 26.4484 32.3287 26.937 32.3287 27.4466C32.3653 27.742 32.3148 28.0416 32.1834 28.3087C32.052 28.5758 31.8454 28.7986 31.589 28.9499C30.6284 29.507 28.9522 29.3101 28.5871 28.119C28.5119 27.7656 28.4845 27.4038 28.5055 27.0431C28.4863 26.5916 28.4671 25.9144 28.4382 25.5109L28.4286 25.5254ZM42.7608 39.0747C39.7331 42.5599 35.6016 44.9011 31.0559 45.7076C28.6063 46.1879 26.0127 46.5577 23.7649 45.2273C22.7505 44.6608 21.9178 43.818 21.3634 42.797C27.6409 43.0323 33.9473 41.5578 38.5966 37.7058C43.827 33.2726 45.6426 24.6993 43.049 18.2873H43.0826C41.5888 14.2479 38.5485 11.419 34.3651 11.0347C32.9158 10.9084 31.4562 11.0971 30.0866 11.5879C28.717 12.0787 27.4698 12.8599 26.4306 13.8781C24.6199 15.8281 24.1299 18.6043 24.0291 21.1739H20.5709V18.8924C20.4605 14.0894 14.8842 11.6879 10.9649 14.0126C5.7873 17.0721 8.02069 25.2468 13.9908 25.5014H16.229V37.4368C10.8929 35.7558 5.91217 31.947 4.70182 25.3621C4.25225 23.241 4.23317 21.0512 4.64569 18.9226C5.05821 16.794 5.89393 14.7699 7.10332 12.9703C9.45679 9.60821 13.0254 7.20672 16.8534 5.83306C20.7749 4.38788 24.9997 3.96477 29.1299 4.60353C34.4564 5.47287 39.5332 7.96562 43.0586 12.101C45.5062 14.9578 47.0463 18.4795 47.4821 22.2161C48.2842 28.2102 46.7857 34.459 42.7608 39.0747ZM14.2934 21.1739C13.7839 21.1739 13.2952 20.9714 12.9349 20.6111C12.5746 20.2508 12.3722 19.7622 12.3722 19.2527C12.3402 18.9617 12.393 18.6677 12.5242 18.4061C12.6555 18.1445 12.8595 17.9264 13.1119 17.7781C14.303 17.1009 16.3011 17.5764 16.1906 19.2527V21.1739H14.2934Z" fill="#FEB45C"/>
<path d="M102.464 58.046C102.464 58.8246 102.309 59.478 102 60.006C101.691 60.5286 101.261 60.926 100.712 61.198C100.163 61.4646 99.5333 61.598 98.824 61.598H96.408V60.334C96.5893 60.3286 96.8373 60.3233 97.152 60.318C97.472 60.3126 97.784 60.31 98.088 60.31C98.3973 60.3046 98.6293 60.302 98.784 60.302C99.328 60.302 99.7413 60.182 100.024 59.942C100.312 59.702 100.509 59.4086 100.616 59.062C100.728 58.71 100.784 58.3713 100.784 58.046C100.784 57.7153 100.728 57.3793 100.616 57.038C100.509 56.6913 100.312 56.4006 100.024 56.166C99.7413 55.9313 99.328 55.814 98.784 55.814C98.5493 55.814 98.2747 55.814 97.96 55.814C97.6507 55.8086 97.36 55.8033 97.088 55.798V65.502C96.9653 65.5233 96.8293 65.5393 96.68 65.55C96.536 65.5606 96.4 65.566 96.272 65.566C96.1547 65.566 96.0213 65.5606 95.872 65.55C95.728 65.5393 95.5947 65.5233 95.472 65.502V54.662L95.576 54.566C96.1733 54.5553 96.7307 54.5446 97.248 54.534C97.7653 54.518 98.2907 54.51 98.824 54.51C99.528 54.51 100.155 54.6406 100.704 54.902C101.253 55.1633 101.683 55.5553 101.992 56.078C102.307 56.6006 102.464 57.2566 102.464 58.046ZM108.549 57.59C108.549 57.8033 108.52 58.0513 108.461 58.334C108.402 58.6113 108.306 58.854 108.173 59.062C108.072 59.0406 107.968 59.0273 107.861 59.022C107.754 59.0113 107.648 59.0033 107.541 58.998C107.226 58.998 106.952 59.0646 106.717 59.198C106.488 59.326 106.293 59.494 106.133 59.702C105.973 59.91 105.837 60.134 105.725 60.374C105.618 60.614 105.53 60.846 105.461 61.07L105.229 60.774C105.24 60.406 105.29 60.03 105.381 59.646C105.472 59.262 105.613 58.9073 105.805 58.582C106.002 58.2566 106.256 57.9953 106.565 57.798C106.88 57.6006 107.266 57.502 107.725 57.502C107.858 57.502 107.992 57.51 108.125 57.526C108.258 57.5366 108.4 57.558 108.549 57.59ZM103.629 58.334C103.666 58.19 103.741 58.0353 103.853 57.87C103.97 57.7046 104.09 57.5793 104.213 57.494C104.725 57.6166 105.104 57.886 105.349 58.302C105.6 58.7126 105.744 59.2273 105.781 59.846V65.502C105.562 65.5446 105.304 65.566 105.005 65.566C104.701 65.566 104.44 65.5446 104.221 65.502V59.982C104.221 59.5606 104.157 59.214 104.029 58.942C103.906 58.6646 103.773 58.462 103.629 58.334ZM115.905 61.558C115.905 62.3686 115.774 63.086 115.513 63.71C115.257 64.334 114.873 64.8246 114.361 65.182C113.854 65.534 113.222 65.71 112.465 65.71C111.707 65.71 111.075 65.5313 110.569 65.174C110.062 64.8166 109.681 64.326 109.425 63.702C109.169 63.0726 109.041 62.358 109.041 61.558C109.041 60.7473 109.169 60.03 109.425 59.406C109.686 58.782 110.07 58.294 110.577 57.942C111.089 57.5846 111.718 57.406 112.465 57.406C113.227 57.406 113.862 57.5846 114.369 57.942C114.881 58.2993 115.265 58.79 115.521 59.414C115.777 60.038 115.905 60.7526 115.905 61.558ZM110.657 61.558C110.657 62.0593 110.71 62.5366 110.817 62.99C110.923 63.438 111.107 63.8033 111.369 64.086C111.635 64.3633 112.006 64.502 112.481 64.502C112.95 64.502 113.315 64.3633 113.577 64.086C113.838 63.8033 114.022 63.438 114.129 62.99C114.235 62.5366 114.289 62.0593 114.289 61.558C114.289 61.0566 114.235 60.582 114.129 60.134C114.022 59.6806 113.838 59.3126 113.577 59.03C113.315 58.742 112.95 58.598 112.481 58.598C112.006 58.598 111.635 58.742 111.369 59.03C111.107 59.3126 110.923 59.6806 110.817 60.134C110.71 60.582 110.657 61.0566 110.657 61.558ZM124.484 65.502C124.361 65.5233 124.233 65.5366 124.1 65.542C123.972 65.5526 123.841 65.558 123.708 65.558C123.569 65.558 123.436 65.5526 123.308 65.542C123.18 65.5366 123.052 65.5233 122.924 65.502V59.582C122.924 59.294 122.873 59.0833 122.772 58.95C122.676 58.8166 122.497 58.75 122.236 58.75H120.86C120.534 58.7446 120.209 58.742 119.884 58.742C119.558 58.7366 119.23 58.7313 118.9 58.726L116.788 58.758C116.745 58.5606 116.724 58.366 116.724 58.174C116.724 57.9926 116.745 57.8006 116.788 57.598L118.9 57.63C119.63 57.6193 120.34 57.6086 121.028 57.598C121.716 57.582 122.396 57.574 123.068 57.574H123.26C123.644 57.574 123.942 57.6966 124.156 57.942C124.374 58.1873 124.484 58.518 124.484 58.934V65.502ZM118.148 58.286C118.11 57.9073 118.06 57.5366 117.996 57.174C117.932 56.806 117.9 56.4593 117.9 56.134C117.9 55.67 117.996 55.254 118.188 54.886C118.38 54.5126 118.657 54.2166 119.02 53.998C119.382 53.7793 119.822 53.67 120.34 53.67C120.58 53.67 120.828 53.6913 121.084 53.734C121.34 53.7713 121.566 53.8193 121.764 53.878C121.774 53.99 121.766 54.1153 121.74 54.254C121.718 54.3926 121.684 54.526 121.636 54.654C121.588 54.782 121.532 54.886 121.468 54.966C121.297 54.9286 121.14 54.902 120.996 54.886C120.857 54.8646 120.716 54.854 120.572 54.854C120.204 54.854 119.913 54.974 119.7 55.214C119.486 55.4486 119.38 55.7873 119.38 56.23C119.38 56.5446 119.417 56.878 119.492 57.23C119.566 57.582 119.628 57.9446 119.676 58.318V65.502C119.542 65.5233 119.412 65.5366 119.284 65.542C119.161 65.5526 119.038 65.558 118.916 65.558C118.798 65.558 118.673 65.5526 118.54 65.542C118.412 65.5366 118.281 65.5233 118.148 65.502V58.286ZM122.556 55.502C122.556 55.39 122.566 55.27 122.588 55.142C122.614 55.0086 122.646 54.8993 122.684 54.814C122.78 54.7553 122.908 54.71 123.068 54.678C123.228 54.6406 123.38 54.622 123.524 54.622C123.662 54.622 123.814 54.6406 123.98 54.678C124.15 54.71 124.278 54.7553 124.364 54.814C124.401 54.8993 124.43 55.0086 124.452 55.142C124.478 55.27 124.492 55.39 124.492 55.502C124.492 55.7686 124.449 55.998 124.364 56.19C124.289 56.2486 124.164 56.2966 123.988 56.334C123.817 56.366 123.662 56.382 123.524 56.382C123.38 56.382 123.225 56.366 123.06 56.334C122.9 56.2966 122.774 56.2486 122.684 56.19C122.646 56.1046 122.614 55.998 122.588 55.87C122.566 55.7366 122.556 55.614 122.556 55.502ZM126.246 64.91C126.257 64.7286 126.313 64.5313 126.414 64.318C126.521 64.0993 126.641 63.9313 126.774 63.814C127.11 63.9953 127.47 64.1606 127.854 64.31C128.244 64.454 128.636 64.526 129.03 64.526C129.484 64.526 129.841 64.4273 130.102 64.23C130.369 64.0326 130.505 63.782 130.51 63.478C130.51 63.2433 130.422 63.0273 130.246 62.83C130.07 62.6326 129.812 62.4726 129.47 62.35L128.542 62.006C128.174 61.8726 127.836 61.7073 127.526 61.51C127.217 61.3073 126.969 61.062 126.782 60.774C126.601 60.486 126.51 60.1393 126.51 59.734C126.51 59.254 126.633 58.8406 126.878 58.494C127.124 58.1473 127.457 57.8806 127.878 57.694C128.305 57.502 128.782 57.406 129.31 57.406C129.737 57.406 130.19 57.462 130.67 57.574C131.156 57.686 131.561 57.8193 131.886 57.974C131.892 58.166 131.852 58.3766 131.766 58.606C131.681 58.83 131.566 59.006 131.422 59.134C131.15 59.006 130.828 58.8886 130.454 58.782C130.081 58.67 129.694 58.614 129.294 58.614C128.937 58.614 128.646 58.7046 128.422 58.886C128.198 59.062 128.086 59.2966 128.086 59.59C128.086 59.8193 128.172 60.0113 128.342 60.166C128.518 60.3206 128.777 60.462 129.118 60.59L130.102 60.958C130.7 61.1766 131.185 61.478 131.558 61.862C131.937 62.2406 132.126 62.7366 132.126 63.35C132.126 64.086 131.841 64.6646 131.27 65.086C130.7 65.502 129.95 65.71 129.022 65.71C128.462 65.71 127.945 65.63 127.47 65.47C127.001 65.31 126.593 65.1233 126.246 64.91ZM133.231 64.91C133.241 64.7286 133.297 64.5313 133.399 64.318C133.505 64.0993 133.625 63.9313 133.759 63.814C134.095 63.9953 134.455 64.1606 134.839 64.31C135.228 64.454 135.62 64.526 136.015 64.526C136.468 64.526 136.825 64.4273 137.087 64.23C137.353 64.0326 137.489 63.782 137.495 63.478C137.495 63.2433 137.407 63.0273 137.231 62.83C137.055 62.6326 136.796 62.4726 136.455 62.35L135.527 62.006C135.159 61.8726 134.82 61.7073 134.511 61.51C134.201 61.3073 133.953 61.062 133.767 60.774C133.585 60.486 133.495 60.1393 133.495 59.734C133.495 59.254 133.617 58.8406 133.863 58.494C134.108 58.1473 134.441 57.8806 134.863 57.694C135.289 57.502 135.767 57.406 136.295 57.406C136.721 57.406 137.175 57.462 137.655 57.574C138.14 57.686 138.545 57.8193 138.871 57.974C138.876 58.166 138.836 58.3766 138.751 58.606C138.665 58.83 138.551 59.006 138.407 59.134C138.135 59.006 137.812 58.8886 137.439 58.782C137.065 58.67 136.679 58.614 136.279 58.614C135.921 58.614 135.631 58.7046 135.407 58.886C135.183 59.062 135.071 59.2966 135.071 59.59C135.071 59.8193 135.156 60.0113 135.327 60.166C135.503 60.3206 135.761 60.462 136.103 60.59L137.087 60.958C137.684 61.1766 138.169 61.478 138.543 61.862C138.921 62.2406 139.111 62.7366 139.111 63.35C139.111 64.086 138.825 64.6646 138.255 65.086C137.684 65.502 136.935 65.71 136.007 65.71C135.447 65.71 134.929 65.63 134.455 65.47C133.985 65.31 133.577 65.1233 133.231 64.91ZM142.759 65.502C142.54 65.5446 142.281 65.566 141.983 65.566C141.684 65.566 141.423 65.5446 141.199 65.502V59.582C141.199 59.294 141.148 59.086 141.047 58.958C140.951 58.8246 140.772 58.758 140.511 58.758H140.335C140.292 58.5766 140.271 58.3926 140.271 58.206C140.271 58.11 140.276 58.0166 140.287 57.926C140.297 57.83 140.313 57.7313 140.335 57.63C140.532 57.6033 140.716 57.5846 140.887 57.574C141.057 57.5633 141.199 57.558 141.311 57.558H141.511C141.9 57.558 142.204 57.6806 142.423 57.926C142.647 58.1713 142.759 58.5046 142.759 58.926V65.502ZM140.703 55.486C140.703 55.2246 140.751 54.9953 140.847 54.798C140.943 54.7446 141.071 54.6993 141.231 54.662C141.391 54.6246 141.545 54.606 141.695 54.606C141.833 54.606 141.988 54.6246 142.159 54.662C142.335 54.6993 142.463 54.7446 142.543 54.798C142.585 54.8886 142.62 55.0006 142.647 55.134C142.673 55.262 142.687 55.3793 142.687 55.486C142.687 55.7526 142.639 55.9846 142.543 56.182C142.468 56.2353 142.343 56.2806 142.167 56.318C141.991 56.3553 141.833 56.374 141.695 56.374C141.545 56.374 141.388 56.3553 141.223 56.318C141.063 56.2806 140.937 56.2353 140.847 56.182C140.751 55.9846 140.703 55.7526 140.703 55.486ZM151.608 61.558C151.608 62.3686 151.477 63.086 151.216 63.71C150.96 64.334 150.576 64.8246 150.064 65.182C149.557 65.534 148.925 65.71 148.168 65.71C147.41 65.71 146.778 65.5313 146.272 65.174C145.765 64.8166 145.384 64.326 145.128 63.702C144.872 63.0726 144.744 62.358 144.744 61.558C144.744 60.7473 144.872 60.03 145.128 59.406C145.389 58.782 145.773 58.294 146.28 57.942C146.792 57.5846 147.421 57.406 148.168 57.406C148.93 57.406 149.565 57.5846 150.072 57.942C150.584 58.2993 150.968 58.79 151.224 59.414C151.48 60.038 151.608 60.7526 151.608 61.558ZM146.36 61.558C146.36 62.0593 146.413 62.5366 146.52 62.99C146.626 63.438 146.81 63.8033 147.072 64.086C147.338 64.3633 147.709 64.502 148.184 64.502C148.653 64.502 149.018 64.3633 149.28 64.086C149.541 63.8033 149.725 63.438 149.832 62.99C149.938 62.5366 149.992 62.0593 149.992 61.558C149.992 61.0566 149.938 60.582 149.832 60.134C149.725 59.6806 149.541 59.3126 149.28 59.03C149.018 58.742 148.653 58.598 148.184 58.598C147.709 58.598 147.338 58.742 147.072 59.03C146.81 59.3126 146.626 59.6806 146.52 60.134C146.413 60.582 146.36 61.0566 146.36 61.558ZM154.296 57.542C154.627 57.542 154.853 57.6406 154.976 57.838C155.104 58.03 155.168 58.302 155.168 58.654V65.502C154.955 65.5446 154.699 65.566 154.4 65.566C154.096 65.566 153.832 65.5446 153.608 65.502V57.646L153.712 57.542H154.296ZM159.856 63.846C159.856 64.1233 159.872 64.3846 159.904 64.63C159.941 64.8753 160.008 65.0886 160.104 65.27C159.987 65.366 159.84 65.446 159.664 65.51C159.488 65.574 159.307 65.606 159.12 65.606C158.816 65.606 158.6 65.5233 158.472 65.358C158.349 65.1873 158.288 64.9366 158.288 64.606V60.462C158.288 59.9073 158.219 59.5073 158.08 59.262C157.941 59.0113 157.669 58.886 157.264 58.886C156.981 58.886 156.68 58.9526 156.36 59.086C156.04 59.214 155.739 59.398 155.456 59.638C155.173 59.878 154.944 60.1553 154.768 60.47V58.95C155.125 58.534 155.565 58.1846 156.088 57.902C156.616 57.614 157.168 57.47 157.744 57.47C158.245 57.47 158.651 57.5873 158.96 57.822C159.269 58.0513 159.496 58.3633 159.64 58.758C159.784 59.1473 159.856 59.5846 159.856 60.07V63.846ZM161.783 63.358C161.783 62.75 161.916 62.2513 162.183 61.862C162.449 61.4726 162.812 61.1873 163.271 61.006C163.729 60.8193 164.249 60.726 164.831 60.726C165.135 60.726 165.476 60.7393 165.855 60.766C166.239 60.7926 166.591 60.846 166.911 60.926V61.982C166.623 61.9126 166.297 61.8673 165.935 61.846C165.572 61.8246 165.233 61.814 164.919 61.814C164.417 61.814 164.028 61.942 163.751 62.198C163.479 62.4486 163.343 62.798 163.343 63.246C163.343 63.5873 163.436 63.8753 163.623 64.11C163.815 64.3446 164.092 64.462 164.455 64.462C164.849 64.462 165.268 64.3233 165.711 64.046C166.159 63.7686 166.532 63.3606 166.831 62.822L167.079 64.054C166.887 64.278 166.649 64.518 166.367 64.774C166.084 65.03 165.756 65.2513 165.383 65.438C165.009 65.6193 164.591 65.71 164.127 65.71C163.599 65.71 163.161 65.5926 162.815 65.358C162.468 65.1233 162.209 64.8273 162.039 64.47C161.868 64.1073 161.783 63.7366 161.783 63.358ZM168.399 64.814C168.356 64.9526 168.276 65.102 168.159 65.262C168.047 65.422 167.924 65.542 167.791 65.622C167.465 65.5473 167.204 65.4193 167.007 65.238C166.815 65.0566 166.671 64.8433 166.575 64.598C166.479 64.3473 166.423 64.0806 166.407 63.798V60.174C166.407 59.6513 166.289 59.278 166.055 59.054C165.82 58.83 165.495 58.718 165.079 58.718C164.668 58.718 164.247 58.7793 163.815 58.902C163.388 59.0246 162.964 59.1713 162.543 59.342C162.415 59.214 162.305 59.0406 162.215 58.822C162.129 58.598 162.081 58.3846 162.071 58.182C162.364 58.054 162.695 57.934 163.062 57.822C163.436 57.71 163.82 57.6193 164.215 57.55C164.615 57.4806 164.996 57.446 165.359 57.446C165.887 57.446 166.345 57.5446 166.735 57.742C167.124 57.934 167.423 58.2273 167.631 58.622C167.844 59.0166 167.951 59.518 167.951 60.126V63.406C167.951 63.7153 167.977 63.9846 168.031 64.214C168.089 64.4433 168.212 64.6433 168.399 64.814ZM173.188 64.326C173.273 64.5553 173.316 64.8193 173.316 65.118C173.316 65.1766 173.313 65.2353 173.308 65.294C173.308 65.3526 173.3 65.406 173.284 65.454C173.108 65.4806 172.895 65.5073 172.644 65.534C172.393 65.5606 172.167 65.574 171.964 65.574C171.468 65.574 171.087 65.4406 170.82 65.174C170.559 64.9073 170.428 64.51 170.428 63.982V53.838L170.524 53.734H171.116C171.447 53.734 171.668 53.8166 171.78 53.982C171.897 54.142 171.956 54.398 171.956 54.75V63.622C171.956 63.8566 172.007 64.0326 172.108 64.15C172.215 64.2673 172.372 64.326 172.58 64.326H173.188Z" fill="white"/>
</svg>
