<svg width="142" height="142" viewBox="0 0 142 142" fill="none" xmlns="http://www.w3.org/2000/svg">
<rect width="142" height="142" rx="71" fill="white"/>
<rect width="142" height="142" rx="71" fill="#6A7A56" fill-opacity="0.1"/>
<path d="M61.88 96.68L102.77 55.79L94.65 47.67L61.88 80.44L45.35 63.91L37.23 72.03L61.88 96.68ZM70 128C61.9767 128 54.4367 126.477 47.38 123.432C40.3233 120.387 34.185 116.255 28.965 111.035C23.745 105.815 19.6125 99.6767 16.5675 92.62C13.5225 85.5633 12 78.0233 12 70C12 61.9767 13.5225 54.4367 16.5675 47.38C19.6125 40.3233 23.745 34.185 28.965 28.965C34.185 23.745 40.3233 19.6125 47.38 16.5675C54.4367 13.5225 61.9767 12 70 12C78.0233 12 85.5633 13.5225 92.62 16.5675C99.6767 19.6125 105.815 23.745 111.035 28.965C116.255 34.185 120.387 40.3233 123.432 47.38C126.477 54.4367 128 61.9767 128 70C128 78.0233 126.477 85.5633 123.432 92.62C120.387 99.6767 116.255 105.815 111.035 111.035C105.815 116.255 99.6767 120.387 92.62 123.432C85.5633 126.477 78.0233 128 70 128ZM70 116.4C82.9533 116.4 93.925 111.905 102.915 102.915C111.905 93.925 116.4 82.9533 116.4 70C116.4 57.0467 111.905 46.075 102.915 37.085C93.925 28.095 82.9533 23.6 70 23.6C57.0467 23.6 46.075 28.095 37.085 37.085C28.095 46.075 23.6 57.0467 23.6 70C23.6 82.9533 28.095 93.925 37.085 102.915C46.075 111.905 57.0467 116.4 70 116.4Z" fill="#6A7A56"/>
</svg>
